<svg width="59" height="53" viewBox="0 0 59 53" fill="none" xmlns="http://www.w3.org/2000/svg">
<path d="M58.6579 6.20611C58.6279 5.74611 58.4238 5.31482 58.0871 4.99999C57.7504 4.68517 57.3064 4.51046 56.8454 4.51144H45.7169V2.5449C45.7169 2.0642 45.5259 1.60319 45.186 1.26328C44.8461 0.923379 44.3851 0.732422 43.9044 0.732422H15.4125C14.9318 0.732422 14.4708 0.923379 14.1309 1.26328C13.791 1.60319 13.6 2.0642 13.6 2.5449V4.51144H2.47148C2.01052 4.51046 1.56651 4.68517 1.2298 4.99999C0.893086 5.31482 0.688982 5.74611 0.659021 6.20611C0.659021 6.20611 0.659021 6.50517 0.659021 7.02172C0.630552 10.9709 1.66243 14.8553 3.64698 18.2698C5.63154 21.6842 8.49604 24.5034 11.9416 26.4334L17.6962 29.6777C19.5581 31.748 21.9341 33.2893 24.5836 34.1455V40.2535H19.0374C18.5567 40.2535 18.0957 40.4445 17.7558 40.7844C17.4159 41.1243 17.2249 41.5853 17.2249 42.066V50.9199C17.2249 51.4006 17.4159 51.8616 17.7558 52.2016C18.0957 52.5415 18.5567 52.7324 19.0374 52.7324H40.2795C40.7602 52.7324 41.2212 52.5415 41.5611 52.2016C41.901 51.8616 42.092 51.4006 42.092 50.9199V42.066C42.092 41.5853 41.901 41.1243 41.5611 40.7844C41.2212 40.4445 40.7602 40.2535 40.2795 40.2535H34.7333V34.1455C37.3828 33.2893 39.7588 31.748 41.6207 29.6777L47.3753 26.4334C50.8209 24.5034 53.6854 21.6842 55.6699 18.2698C57.6545 14.8553 58.6863 10.9709 58.6579 7.02172C58.6579 6.50517 58.6579 6.20611 58.6579 6.20611ZM17.2521 4.39363H42.092V19.0928C42.0957 21.9138 41.1149 24.6477 39.3189 26.823C39.0438 26.9993 38.8215 27.2467 38.6755 27.539C37.5414 28.7186 36.1804 29.6567 34.6744 30.2968C33.1684 30.9369 31.5486 31.2657 29.9122 31.2636H29.4047C27.767 31.2634 26.1464 30.9317 24.6403 30.2884C23.1343 29.6452 21.774 28.7038 20.6414 27.5208C20.4954 27.2286 20.2731 26.9812 19.998 26.8049C18.202 24.6296 17.2212 21.8957 17.2249 19.0747L17.2521 4.39363ZM13.7269 23.2796C11.0006 21.7602 8.70428 19.574 7.05281 16.9256C5.40133 14.2772 4.44867 11.2532 4.28395 8.13639H13.6V19.0928C13.5982 20.6268 13.818 22.1529 14.2525 23.624L13.7269 23.2796ZM38.467 49.1075H20.8499V43.8785H38.467V49.1075ZM31.1084 40.2535H28.2085V34.8886C28.5982 34.8886 28.9969 34.952 29.4047 34.952H29.9122C30.32 34.952 30.7187 34.952 31.1084 34.8886V40.2535ZM45.6081 23.2796L45.0825 23.5787C45.517 22.1076 45.7368 20.5814 45.735 19.0475V8.13639H55.0329C54.8682 11.2532 53.9156 14.2772 52.2641 16.9256C50.6126 19.574 48.3163 21.7602 45.59 23.2796H45.6081Z" fill="#FFD17E"/>
</svg>
