<svg width="60" height="44" viewBox="0 0 60 44" fill="none" xmlns="http://www.w3.org/2000/svg">
<path d="M59.3962 11.8625C59.4747 11.7063 59.4747 11.5501 59.4747 11.472C59.4747 11.3939 59.4747 11.3159 59.4747 11.2378C59.4747 11.0816 59.4747 10.9254 59.3962 10.7692C59.3178 10.6131 59.1608 10.4569 59.0038 10.3007L51.469 0.617935C51.2335 0.305587 50.8411 0.149414 50.4487 0.149414H9.63519C9.24275 0.149414 8.9288 0.305587 8.69334 0.617935L1.08006 10.2226C0.923081 10.3788 0.766106 10.4569 0.687618 10.6912C0.609131 10.8473 0.609131 11.0035 0.609131 11.1597C0.609131 11.3939 0.609131 11.6282 0.687618 11.8625C0.766106 12.0967 0.923081 12.2529 1.15854 12.4091L29.1001 43.4096C29.1001 43.4096 29.1786 43.4096 29.1786 43.4877C29.2571 43.5658 29.3355 43.6439 29.4925 43.722C29.4925 43.722 29.571 43.722 29.571 43.8001C29.728 43.8782 29.885 43.8781 30.0419 43.8781C30.1989 43.8781 30.3559 43.8001 30.5129 43.8001C30.5913 43.8001 30.5913 43.8001 30.5913 43.722C30.6698 43.6439 30.8268 43.5658 30.9053 43.4877C30.9053 43.4877 30.9838 43.4877 30.9838 43.4096L58.9253 12.4091C59.0823 12.1748 59.2393 12.0186 59.3962 11.8625ZM21.2513 9.98838L30.0419 2.88246L38.911 9.98838H21.2513ZM4.45502 9.98838L9.63519 3.35098L14.8939 9.98838H4.45502ZM40.6377 12.4872L30.0419 39.1148L19.4461 12.4872H40.6377ZM45.19 9.98838L50.4487 3.35098L55.6288 9.98838H45.19ZM42.3645 9.59794L33.7308 2.57011H47.9371L42.3645 9.59794ZM17.7194 9.59794L12.1468 2.57011H26.353L17.7194 9.59794ZM16.7776 12.4872L26.2745 36.538L4.69048 12.4872H16.7776ZM43.3063 12.4872H55.3934L33.7308 36.538L43.3063 12.4872Z" fill="#FFD17E"/>
</svg>
