<svg width="124" height="71" viewBox="0 0 124 71" fill="none" xmlns="http://www.w3.org/2000/svg">
<path d="M35.6459 40.6818L36.0806 40.1305C37.0587 41.0125 37.9281 41.4535 39.2323 41.4535C40.5364 41.4535 41.5145 40.6818 41.5145 39.6895C41.5145 38.6973 40.9711 38.146 39.0149 37.8153C36.8414 37.3743 36.0806 36.6026 36.0806 35.2796C36.0806 33.9566 37.2761 32.9644 38.9062 32.9644C40.2104 32.9644 41.0798 33.2951 41.9492 34.0668L41.5145 34.6181C40.6451 33.8463 39.8843 33.6258 38.9062 33.6258C37.6021 33.6258 36.7327 34.3976 36.7327 35.3898C36.7327 36.3821 37.1674 36.9333 39.3409 37.3743C41.4058 37.8153 42.2752 38.587 42.2752 39.91C42.2752 41.3432 41.0798 42.3355 39.3409 42.3355C37.8195 42.115 36.7327 41.674 35.6459 40.6818Z" fill="#C49A6C"/>
<path d="M43.5793 33.0746H44.3401L47.1657 41.0125L49.7739 32.9644H50.3173L52.9255 41.0125L55.7511 33.0746H56.4032L53.1429 42.115H52.5995L49.9913 34.2873L47.383 42.115H46.731L43.5793 33.0746Z" fill="#C49A6C"/>
<path d="M58.142 33.0747H64.4452V33.7362H58.794V37.2641H63.9018V37.9256H58.794V41.5638H64.4452V42.2253H58.142V33.0747Z" fill="#C49A6C"/>
<path d="M67.1621 33.0747H73.4654V33.7362H67.8142V37.2641H72.8133V37.9256H67.7055V41.5638H73.3567V42.2253H67.0535V33.0747H67.1621Z" fill="#C49A6C"/>
<path d="M78.0298 33.6259H74.9869V33.0747H81.8335V33.7362H78.7906V42.1151H78.1385V33.6259H78.0298Z" fill="#C49A6C"/>
<path d="M4.34706 39.7995C4.34706 39.5791 4.34706 39.3586 4.23839 39.2483C4.23839 39.1381 4.12971 38.9176 4.02103 38.8073C3.91236 38.6971 3.80368 38.5868 3.80368 38.4766C3.695 38.3663 3.58633 38.3663 3.47765 38.2561C3.36897 38.1458 3.15162 38.1458 3.04294 38.0356C2.82559 37.9253 2.71691 37.9253 2.49956 37.8151C2.17353 37.7048 1.95618 37.5946 1.63015 37.4843C1.30412 37.3741 1.08677 37.2638 0.869413 37.0433C0.65206 36.8228 0.434706 36.6023 0.32603 36.3818C0.108677 36.0511 0 35.7204 0 35.2794C0 34.5076 0.217353 33.8461 0.65206 33.4051C1.08677 32.9641 1.73883 32.7437 2.60824 32.7437C2.71692 32.7437 2.93427 32.7437 3.2603 32.7437C3.47765 32.7437 3.80368 32.8539 4.02103 32.8539C4.23839 32.9641 4.45574 32.9641 4.67309 33.0744C4.89045 33.1846 4.89045 33.2949 4.89045 33.5154C4.89045 33.6256 4.89045 33.7359 4.78177 33.8461C4.67309 33.9564 4.56442 33.9564 4.45574 33.9564C4.34706 33.9564 4.34706 33.9564 4.23839 33.9564C4.12971 33.9564 4.12971 33.9564 4.02103 33.8461C3.91236 33.7359 3.695 33.7359 3.47765 33.6256C3.2603 33.5154 3.04294 33.5154 2.82559 33.5154C2.60824 33.5154 2.39089 33.5154 2.17353 33.6256C1.95618 33.6256 1.73883 33.7359 1.63015 33.8461C1.30412 34.0666 1.19544 34.1769 1.08677 34.3974C0.978089 34.6179 0.978089 34.8384 0.978089 35.1691C0.978089 35.3896 0.978089 35.6101 1.08677 35.8306C1.19544 36.0511 1.19544 36.1614 1.30412 36.2716C1.4128 36.3819 1.52147 36.4921 1.63015 36.4921C1.73883 36.6023 1.8475 36.6023 1.8475 36.7126C1.95618 36.8228 2.17353 36.8228 2.39089 36.9331C2.60824 37.0433 2.71692 37.0433 2.93427 37.1536C3.2603 37.2638 3.47765 37.3741 3.80368 37.4843C4.12971 37.5946 4.34706 37.8151 4.56442 37.9253C4.78177 38.1458 4.99912 38.3663 5.1078 38.6971C5.21648 39.0278 5.32515 39.3586 5.32515 39.7995C5.32515 40.2405 5.21648 40.5713 5.1078 41.0123C4.99912 41.343 4.78177 41.6738 4.56442 41.8943C4.34706 42.1148 4.02103 42.3353 3.695 42.4455C3.36897 42.5558 2.93427 42.666 2.60824 42.666C2.39089 42.666 2.17353 42.666 1.8475 42.666C1.52147 42.666 1.30412 42.5558 1.08677 42.5558C0.869413 42.4455 0.65206 42.3353 0.434706 42.225C0.108677 41.784 0 41.6738 0 41.5635C0 41.4533 0 41.343 0.108677 41.2328C0.217353 41.1225 0.32603 41.1225 0.434706 41.1225C0.434706 41.1225 0.543383 41.1225 0.65206 41.1225C0.760736 41.1225 0.869413 41.2328 0.978089 41.2328C1.19544 41.343 1.4128 41.343 1.63015 41.4533C1.8475 41.5635 2.17353 41.5635 2.49956 41.5635C3.15162 41.5635 3.58633 41.4533 3.91236 41.1225C4.12971 40.7918 4.34706 40.3508 4.34706 39.7995Z" fill="#C49A6C"/>
<path d="M8.47677 42.0047C8.47677 42.1149 8.47677 42.2252 8.3681 42.3354C8.25942 42.4457 8.15074 42.4457 8.04207 42.4457C7.93339 42.4457 7.82471 42.4457 7.71604 42.3354C7.60736 42.2252 7.60736 42.1149 7.60736 42.0047V32.8541C7.60736 32.7438 7.60736 32.6336 7.71604 32.5233C7.82471 32.4131 7.93339 32.4131 8.04207 32.4131C8.15074 32.4131 8.25942 32.4131 8.3681 32.5233C8.47677 32.6336 8.47677 32.7438 8.47677 32.8541V36.0513C8.8028 35.8308 9.02016 35.6103 9.34619 35.5C9.67222 35.3898 9.99825 35.2795 10.3243 35.2795C10.9763 35.2795 11.5197 35.5 11.8457 35.941C12.1718 36.382 12.2805 36.9333 12.2805 37.4845V41.8945C12.2805 42.0047 12.2805 42.1149 12.1718 42.2252C12.0631 42.3354 11.9544 42.3354 11.8457 42.3354C11.7371 42.3354 11.6284 42.3354 11.5197 42.2252C11.411 42.1149 11.411 42.0047 11.411 41.8945V37.5948C11.411 37.1538 11.3024 36.823 11.085 36.4923C10.8677 36.2718 10.5416 36.1615 10.1069 36.1615C9.78089 36.1615 9.56354 36.2718 9.23751 36.382C8.91148 36.4923 8.69413 36.7128 8.47677 37.0435V42.0047Z" fill="#C49A6C"/>
<path d="M17.3883 41.6738C17.7143 41.6738 17.9316 41.6738 18.149 41.5636C18.3663 41.4533 18.5837 41.3431 18.8011 41.3431C18.8011 41.3431 18.8011 41.3431 18.9097 41.3431C18.9097 41.3431 18.9097 41.3431 19.0184 41.3431C19.1271 41.3431 19.2358 41.3431 19.2358 41.4533C19.3444 41.5636 19.3444 41.5636 19.3444 41.6738C19.3444 41.7841 19.2358 42.0046 19.1271 42.0046C19.0184 42.1148 18.8011 42.225 18.5837 42.225C18.3663 42.3353 18.149 42.3353 17.9316 42.3353C17.7143 42.3353 17.4969 42.3353 17.2796 42.3353C16.9536 42.3353 16.6275 42.2251 16.3015 42.1148C15.9755 42.0046 15.7581 41.8943 15.5408 41.6738C15.3234 41.4533 15.2147 41.2328 15.1061 41.0123C14.9974 40.7918 14.9974 40.4611 14.9974 40.1303V37.5946C14.9974 37.2639 14.9974 36.9331 15.1061 36.7126C15.2147 36.4921 15.3234 36.1614 15.5408 36.0511C15.7581 35.8306 15.9755 35.7204 16.3015 35.6101C16.6275 35.4999 16.9536 35.3896 17.2796 35.3896C18.0403 35.3896 18.5837 35.6101 18.9097 35.9409C19.2358 36.3819 19.4531 36.8229 19.4531 37.4844C19.4531 38.0356 19.2358 38.5869 18.9097 38.9176C18.5837 39.2483 18.0403 39.4688 17.2796 39.4688C17.0622 39.4688 16.8449 39.4688 16.5188 39.4688C16.3015 39.4688 15.9755 39.3586 15.7581 39.3586V40.3508C15.7581 40.7918 15.8668 41.1226 16.1928 41.3431C16.5188 41.5636 16.8449 41.6738 17.3883 41.6738ZM18.6924 37.5946C18.6924 37.1536 18.5837 36.7126 18.3663 36.4921C18.149 36.2716 17.823 36.1614 17.3883 36.1614C16.9536 36.1614 16.5188 36.2716 16.3015 36.4921C16.0841 36.7126 15.8668 37.0434 15.8668 37.4844V38.5869C16.1928 38.5869 16.4102 38.6971 16.7362 38.6971C17.0622 38.6971 17.2796 38.6971 17.3883 38.6971C17.7143 38.6971 17.9316 38.6971 18.0403 38.5869C18.2577 38.4766 18.3663 38.4766 18.475 38.3664C18.5837 38.2561 18.5837 38.1459 18.6924 37.9254C18.5837 37.8151 18.6924 37.7049 18.6924 37.5946Z" fill="#C49A6C"/>
<path d="M21.9527 32.9644C21.9527 32.8542 21.9527 32.7439 22.0613 32.6337C22.17 32.5234 22.2787 32.5234 22.3874 32.5234C22.4961 32.5234 22.6047 32.5234 22.7134 32.6337C22.8221 32.7439 22.8221 32.8542 22.8221 32.9644V41.1228C22.8221 41.4536 22.9308 41.6741 23.0394 41.8946C23.0394 41.8946 23.0394 42.0048 23.0394 42.1151C23.0394 42.2253 23.0394 42.3355 22.9308 42.4458C22.8221 42.556 22.8221 42.556 22.6047 42.556C22.4961 42.556 22.4961 42.556 22.3874 42.556C22.2787 42.556 22.17 42.4458 22.17 42.3355C22.0613 42.2253 22.0613 42.115 21.9527 41.8946C21.9527 41.6741 21.844 41.4536 21.844 41.2331V32.9644H21.9527Z" fill="#C49A6C"/>
<path d="M25.865 32.9644C25.865 32.8542 25.865 32.7439 25.9737 32.6337C26.0824 32.5234 26.1911 32.5234 26.2997 32.5234C26.4084 32.5234 26.5171 32.5234 26.6258 32.6337C26.7344 32.7439 26.7344 32.8542 26.7344 32.9644V41.1228C26.7344 41.4536 26.8431 41.6741 26.9518 41.8946C26.9518 41.8946 26.9518 42.0048 26.9518 42.1151C26.9518 42.2253 26.9518 42.3355 26.8431 42.4458C26.7344 42.556 26.6258 42.556 26.5171 42.556C26.4084 42.556 26.4084 42.556 26.2997 42.556C26.1911 42.556 26.0824 42.4458 26.0824 42.3355C25.9737 42.2253 25.9737 42.115 25.865 41.8946C25.865 41.6741 25.7563 41.4536 25.7563 41.2331V32.9644H25.865Z" fill="#C49A6C"/>
<path d="M30.8642 42.0047C30.8642 42.1149 30.8642 42.2252 30.7555 42.3354C30.6468 42.4457 30.5381 42.4457 30.4295 42.4457C30.3208 42.4457 30.2121 42.4457 30.1034 42.3354C29.9948 42.2252 29.9948 42.1149 29.9948 42.0047V35.941C29.9948 35.8307 29.9948 35.7205 30.1034 35.6102C30.2121 35.5 30.3208 35.5 30.4295 35.5C30.5381 35.5 30.6468 35.5 30.7555 35.6102C30.8642 35.7205 30.8642 35.8307 30.8642 35.941V42.0047Z" fill="#C49A6C"/>
<path fill-rule="evenodd" clip-rule="evenodd" d="M30.9728 33.7359C30.8642 33.2949 30.5381 32.7437 30.1034 32.7437C29.7774 32.7437 29.6687 33.1846 29.7774 33.5154C29.7774 33.8461 29.8861 34.0666 30.2121 34.2871C30.6468 34.5076 31.0815 34.2871 30.9728 33.7359Z" fill="#C49A6C"/>
<path d="M53.6863 18.1909C53.5776 18.1909 53.5776 18.1909 53.4689 18.3012L48.3611 21.1676C48.2524 21.1676 48.2524 21.2779 48.2524 21.2779C50.0999 20.1754 52.0561 19.1832 54.121 18.1909C54.0123 18.1909 53.7949 18.1909 53.6863 18.1909Z" fill="#C49A6C"/>
<path d="M56.1859 23.8138C56.4032 25.1368 56.4032 26.6803 56.1859 28.334H57.3813C57.5986 26.6803 57.5986 25.0265 57.3813 23.7036C57.0553 21.4986 56.4032 19.8449 55.5338 18.9629C55.0991 19.1834 54.6644 19.2936 54.2297 19.5141C55.0991 19.8449 55.8598 21.4986 56.1859 23.8138Z" fill="#C49A6C"/>
<path d="M44.7748 28.2238C46.2962 25.3574 48.4698 22.8216 48.9045 22.1602C47.9264 22.7114 46.8396 23.3729 45.9702 24.0344C45.1008 25.2471 44.1227 26.6803 43.4706 28.2238H44.7748Z" fill="#C49A6C"/>
<path d="M49.9912 56.9985C49.9912 56.9985 50.0999 57.1088 50.0999 57.219C49.9912 57.1088 49.9912 56.9985 49.9912 56.9985Z" fill="#C49A6C"/>
<path d="M49.7739 56.8882C49.8826 56.8882 49.8826 56.9984 49.9913 56.9984C49.8826 56.8882 49.8826 56.8882 49.7739 56.8882Z" fill="#C49A6C"/>
<path d="M53.9036 19.4038L49.0132 22.16C50.6433 21.1678 52.3822 20.2858 54.2297 19.4038C54.121 19.4038 54.0123 19.4038 53.9036 19.4038Z" fill="#C49A6C"/>
<path d="M45.9703 24.034C47.057 22.4906 48.0351 21.3881 48.1438 21.2778C44.5575 23.3726 41.4058 25.6878 38.7976 28.2235H40.5364C42.1666 26.7903 44.0141 25.357 45.9703 24.034Z" fill="#C49A6C"/>
<path d="M49.5566 57.9908C49.4479 57.9908 49.4479 57.9908 49.3393 57.9908C49.1219 57.8806 48.9045 57.7703 48.6872 57.6601C46.9484 59.2036 38.6889 59.5343 34.0159 58.1011C33.3638 57.8806 31.4076 57.2191 31.7336 56.3371C32.0597 55.3449 33.1464 55.0141 34.9939 54.5731C36.6241 54.2424 38.4716 53.8014 39.8844 52.4784C40.7538 51.5964 41.6232 49.9427 42.1666 48.1787H40.9712C40.5365 49.6119 39.7757 50.9349 39.1237 51.5964C37.9282 52.6989 36.2981 53.0296 34.7766 53.3604C32.9291 53.8014 31.0816 54.1321 30.6469 55.8961C30.3209 56.8883 30.6469 58.2113 33.7985 59.0933C35.7547 59.6445 38.6889 60.0855 41.5145 60.0855C45.5356 60.0855 49.4479 59.3138 50.2087 57.4396C49.9913 57.8806 49.774 57.9908 49.5566 57.9908Z" fill="#C49A6C"/>
<path d="M28.2559 50.8243C28.0386 50.8243 27.9299 50.8243 27.8212 50.8243C27.9299 50.4935 28.3646 49.6116 28.6906 49.0603C28.7993 48.8398 29.0167 48.5091 29.1253 48.2886H27.7125C27.7125 48.3988 27.6039 48.3988 27.6039 48.5091C26.8431 49.8321 26.1911 50.8243 26.7345 51.596C27.1692 52.2575 28.0386 52.1473 28.3646 52.037C31.5162 51.596 32.603 50.0525 33.1464 48.2886H31.8423C31.4076 49.5013 30.5381 50.4935 28.2559 50.8243Z" fill="#C49A6C"/>
<path d="M84.4417 10.8045C84.7677 10.8045 84.9851 10.4738 84.9851 10.143C84.9851 9.81229 84.6591 9.5918 84.333 9.5918C72.922 11.3558 62.7064 14.2222 54.2296 18.1912C54.773 18.1912 55.2077 18.5219 55.6424 18.8527C63.6845 15.2145 73.574 12.4583 84.4417 10.8045Z" fill="#C49A6C"/>
<path d="M45.9702 24.0342C46.9483 23.3727 47.9264 22.8215 48.9045 22.16L53.7949 19.4038C53.9036 19.4038 54.0123 19.4038 54.121 19.514C54.5557 19.2935 54.9904 19.073 55.4251 18.9628C54.9904 18.5218 54.5557 18.3013 54.0123 18.3013C51.9474 19.2935 49.9912 20.2857 48.1437 21.3882C48.1437 21.3882 47.1657 22.4907 45.9702 24.0342Z" fill="#C49A6C"/>
<path d="M45.9702 24.0342C46.9483 23.3727 47.9264 22.8215 48.9045 22.16L53.7949 19.4038C53.9036 19.4038 54.0123 19.4038 54.121 19.514C54.5557 19.2935 54.9904 19.073 55.4251 18.9628C54.9904 18.5218 54.5557 18.3013 54.0123 18.3013C51.9474 19.2935 49.9912 20.2857 48.1437 21.3882C48.1437 21.3882 47.1657 22.4907 45.9702 24.0342Z" fill="#C49A6C"/>
<path d="M90.3103 10.8042C89.8756 10.8042 89.4409 10.9144 89.1148 10.9144C89.4409 12.7887 91.071 24.6955 82.2682 27.4517C80.5294 28.003 79.2252 27.562 78.4645 26.239C76.617 23.0418 78.2472 15.6551 80.638 13.4502C80.8554 13.2297 80.8554 12.7887 80.638 12.5682C80.4207 12.3477 79.986 12.3477 79.7686 12.5682C77.0517 15.1039 75.3129 23.0418 77.3777 26.7902C77.7038 27.4517 78.1385 27.8927 78.6819 28.2235H83.681C92.1578 24.8058 90.745 13.2297 90.3103 10.8042Z" fill="#C49A6C"/>
<path d="M60.3156 25.0263C60.6416 21.2779 64.7713 15.8757 68.1403 15.8757C68.7923 15.8757 69.4444 16.0962 69.9878 16.5372L70.0965 17.1987C70.0965 17.4192 70.3138 17.6397 70.5312 17.6397C72.1613 18.0807 72.922 19.7344 73.1394 20.9471C73.6828 23.2624 73.1394 26.3493 72.0526 28.3338H73.3567C74.3348 26.1288 74.7695 23.1521 74.3348 20.7266C73.9001 18.6319 72.8134 17.1987 71.1832 16.5372L71.0745 15.986C71.0745 15.8757 70.9659 15.7655 70.8572 15.6552C70.0964 14.8835 69.1184 14.5527 68.0316 14.5527C63.9019 14.5527 59.3375 20.3959 59.0114 24.8058C58.9028 26.0186 58.9028 27.2313 59.0114 28.2235H60.2069C60.2069 27.3416 60.2069 26.2391 60.3156 25.0263Z" fill="#C49A6C"/>
<path d="M44.3401 48.6197C43.688 52.6989 45.2095 55.8961 48.6871 57.6601C48.7958 57.5498 48.9045 57.3293 49.0132 57.2191C49.1219 56.8883 49.4479 56.6678 49.7739 56.7781C49.7739 56.7781 49.7739 56.7781 49.8826 56.7781C45.3182 54.7936 45.2095 50.9349 45.6442 48.73C45.6442 48.5095 45.7529 48.3992 45.7529 48.1787H44.5574C44.3401 48.3992 44.3401 48.5095 44.3401 48.6197Z" fill="#C49A6C"/>
<path d="M62.4891 54.5727C62.2718 54.5727 62.0544 54.4625 61.9457 54.242C61.837 54.1317 61.837 53.9112 61.7284 53.801C59.4462 55.7855 57.0553 56.5572 55.5338 55.8957C54.5557 55.4547 54.121 54.4625 54.0123 53.5805C56.2945 52.919 57.816 50.8243 58.3594 48.2886H57.164C56.6206 50.3833 55.3165 52.2575 53.3603 52.478C53.0342 52.478 52.8169 52.8088 52.8169 53.1395C52.8169 55.0137 53.6863 56.4469 55.0991 57.1084C57.164 57.9904 60.0982 56.9982 62.9238 54.4625L62.8151 54.5727C62.7065 54.5727 62.5978 54.5727 62.4891 54.5727Z" fill="#C49A6C"/>
<path d="M48.9045 57.2188C48.9045 57.3291 48.7958 57.5496 48.5785 57.6598C48.7958 57.7701 49.0132 57.8803 49.2306 57.9906C49.3392 57.9906 49.3392 57.9906 49.4479 57.9906C49.6653 57.9906 49.8826 57.8803 49.9913 57.6598C49.9913 57.5496 49.9913 57.5496 49.9913 57.4393C49.9913 57.3291 49.9913 57.3291 49.9913 57.2188C49.9913 57.1086 49.8826 57.1086 49.8826 56.9983C49.8826 56.9983 49.7739 56.8881 49.6653 56.8881C49.6653 56.8881 49.6653 56.8881 49.5566 56.8881C49.3392 56.6676 49.0132 56.8881 48.9045 57.2188Z" fill="#C49A6C"/>
<path d="M48.9045 57.2188C48.9045 57.3291 48.7958 57.5496 48.5785 57.6598C48.7958 57.7701 49.0132 57.8803 49.2306 57.9906C49.3392 57.9906 49.3392 57.9906 49.4479 57.9906C49.6653 57.9906 49.8826 57.8803 49.9913 57.6598C49.9913 57.5496 49.9913 57.5496 49.9913 57.4393C49.9913 57.3291 49.9913 57.3291 49.9913 57.2188C49.9913 57.1086 49.8826 57.1086 49.8826 56.9983C49.8826 56.9983 49.7739 56.8881 49.6653 56.8881C49.6653 56.8881 49.6653 56.8881 49.5566 56.8881C49.3392 56.6676 49.0132 56.8881 48.9045 57.2188Z" fill="#C49A6C"/>
<path d="M39.5583 17.9705C39.993 17.6398 40.319 17.1988 40.6451 16.9783C51.078 6.8354 61.0763 4.40994 74.0088 1.98447C76.617 1.54348 79.2253 1.21273 82.2682 1.21273C86.8326 1.21273 91.2884 1.76398 95.5267 2.31522C99.5478 2.86646 103.351 3.30745 106.72 3.19721C106.829 3.19721 107.046 3.19721 107.264 3.19721C113.132 3.19721 119.87 5.84317 121.174 8.59938C124.217 15.2143 123.457 23.9239 116.284 27.6724C115.849 27.8929 115.523 28.1134 115.197 28.3339H117.588C124.761 24.1444 125.413 15.104 122.261 8.15839C120.631 4.52019 112.589 1.87422 106.829 2.09472C103.351 2.09472 99.6565 1.65373 95.6354 1.10248C91.397 0.551242 86.9413 0 82.2682 0C79.2253 0 76.5083 0.220497 73.7914 0.771739C60.6416 3.19721 50.426 5.73292 39.7757 15.986C39.4496 16.3168 39.1236 16.6475 38.6889 16.9783C36.0807 19.514 31.8423 23.5932 27.6039 28.2236H29.234C33.1464 24.0342 37.0587 20.2857 39.5583 17.9705Z" fill="#C49A6C"/>
<path d="M99.2218 50.0528C89.2235 58.4317 72.3786 65.3774 60.9676 67.9131C56.8379 68.7951 48.4698 69.7873 40.9711 69.7873C32.7117 69.7873 27.1692 68.6848 24.887 66.7003C21.0833 63.2826 17.2796 63.0621 14.454 62.8416C11.9545 62.7314 11.085 62.5109 10.9764 61.1879C10.759 59.0932 11.085 58.4317 12.1718 56.2267C12.9325 54.6833 14.128 52.2578 15.7581 48.0684H14.454C12.9325 51.9271 11.8458 54.132 11.085 55.5653C9.99827 57.7702 9.45489 58.6522 9.78092 61.1879C9.99827 63.6134 12.0631 63.7236 14.3453 63.8339C16.9536 63.9441 20.4312 64.2749 24.0176 67.3618C26.6258 69.677 32.277 70.7795 40.8624 70.7795C48.4698 70.7795 57.0552 69.7873 61.185 68.9053C72.8134 66.5901 89.7669 59.5342 99.9825 50.9348C101.069 50.0528 102.047 49.1708 102.808 48.1786H101.178C100.635 48.8401 99.9825 49.5016 99.2218 50.0528Z" fill="#C49A6C"/>
<path d="M89.5496 9.92213C89.8756 9.92213 90.2016 10.1426 90.3103 10.3631C90.3103 10.3631 90.3103 10.4734 90.419 10.8041C94.5487 10.4734 100.417 10.3631 102.265 10.3631C102.373 11.9066 101.939 13.8911 101.069 14.5526C100.743 14.8833 100.417 14.8833 99.9825 14.8833C96.9396 14.2218 94.9834 15.5448 93.8966 16.7575C91.7231 19.183 91.3971 22.8212 92.1578 25.0262C92.8098 27.0106 94.2226 27.4516 95.3094 27.4516H95.4181C98.7871 27.4516 103.351 23.5929 105.09 20.6162C105.851 22.0495 106.177 23.2622 105.96 24.1442C105.634 25.3569 104.33 26.0184 102.917 26.6799C102.047 27.1209 101.069 27.5619 100.309 28.2234H102.591C102.917 28.1131 103.134 27.8926 103.46 27.7824C105.09 27.0106 106.72 26.2389 107.155 24.4749C107.59 23.0417 107.046 21.388 105.634 19.0727C105.525 18.8523 105.308 18.742 105.09 18.742C104.873 18.742 104.656 18.9625 104.547 19.183C103.569 21.7187 98.5697 26.2389 95.5268 26.2389C95.5268 26.2389 95.5268 26.2389 95.4181 26.2389C94.44 26.2389 93.7879 25.6877 93.4619 24.5852C92.8098 22.6007 93.2446 19.5137 94.9834 17.5293C96.1788 16.096 97.9176 15.655 99.9825 16.096C100.743 16.3165 101.504 16.096 102.047 15.5448C103.46 14.2218 103.678 11.2451 103.569 9.70163C103.569 9.37089 103.243 9.15039 103.025 9.15039C102.591 9.15039 91.5057 9.26064 87.5934 9.92213C87.2673 9.92213 87.05 10.2529 87.05 10.5836C87.05 10.9144 87.376 11.1349 87.702 11.1349C88.1368 11.0246 88.7888 11.0246 89.4409 10.9144C89.4409 10.8041 89.4409 10.6939 89.4409 10.6939C89.0062 10.3631 89.2235 10.0324 89.5496 9.92213Z" fill="#C49A6C"/>
<path d="M79.7687 49.0607C79.334 50.0529 78.5732 50.1632 77.5951 50.1632C76.3997 50.2734 74.8782 50.3837 74.2262 52.5886L71.6179 53.1399C71.6179 53.1399 71.6179 53.1399 71.5093 53.1399C69.7704 53.1399 69.5531 52.8091 69.5531 52.6989C69.3357 52.2579 70.4225 50.8247 71.1832 49.7222C71.5092 49.1709 71.944 48.73 72.27 48.1787H70.8572C70.6398 48.5095 70.4225 48.73 70.2051 49.0607C68.901 50.8247 67.9229 52.1477 68.4663 53.2501C68.7923 54.0219 69.7704 54.3526 71.5093 54.3526C71.6179 54.3526 71.6179 54.3526 71.7266 54.3526L74.7696 53.8014C74.9869 53.8014 75.2043 53.5809 75.2043 53.3604C75.5303 51.7067 76.3997 51.5964 77.5951 51.4862C78.7906 51.3759 80.4207 51.1554 81.0728 48.6197C81.0728 48.5095 81.0728 48.289 81.0728 48.1787H77.9212C78.4646 48.73 79.0079 49.0607 79.7687 49.0607Z" fill="#C49A6C"/>
<path d="M61.7283 53.8014C61.837 53.6911 61.9457 53.5809 62.0544 53.4706C62.2717 53.2501 62.7064 53.2501 62.9238 53.4706L63.0325 53.5809C62.0544 51.7067 61.4023 49.8324 61.1849 48.1787H59.9895C60.2069 49.9427 60.7502 51.8169 61.7283 53.8014Z" fill="#C49A6C"/>
<path d="M63.0324 54.2422C62.9238 54.3525 62.9238 54.3525 63.0324 54.2422C62.9238 54.3525 62.9238 54.3525 63.0324 54.2422Z" fill="#C49A6C"/>
<path d="M90.3103 10.3634C90.2016 10.1429 89.8756 9.92236 89.5495 9.92236C89.2235 10.0326 89.0061 10.3634 89.1148 10.6941C89.1148 10.6941 89.1148 10.8044 89.1148 10.9146C89.4408 10.9146 89.8756 10.8044 90.3103 10.8044C90.3103 10.5839 90.3103 10.4736 90.3103 10.3634Z" fill="#C49A6C"/>
<path d="M90.3103 10.3634C90.2016 10.1429 89.8756 9.92236 89.5495 9.92236C89.2235 10.0326 89.0061 10.3634 89.1148 10.6941C89.1148 10.6941 89.1148 10.8044 89.1148 10.9146C89.4408 10.9146 89.8756 10.8044 90.3103 10.8044C90.3103 10.5839 90.3103 10.4736 90.3103 10.3634Z" fill="#C49A6C"/>
<path d="M62.0544 53.4706C61.9457 53.5808 61.837 53.6911 61.7283 53.8013C61.837 53.9116 61.837 54.1321 61.9457 54.2423C62.0544 54.4628 62.2717 54.5731 62.4891 54.5731C62.5977 54.5731 62.7064 54.5731 62.8151 54.4628C62.9238 54.4628 62.9238 54.3526 62.9238 54.3526C62.9238 54.3526 62.9238 54.2423 63.0325 54.2423V54.1321V54.0218V53.9116V53.8013V53.6911C63.0325 53.5808 63.0325 53.5808 62.9238 53.5808C62.7064 53.2501 62.3804 53.2501 62.0544 53.4706Z" fill="#C49A6C"/>
<path d="M62.0544 53.4706C61.9457 53.5808 61.837 53.6911 61.7283 53.8013C61.837 53.9116 61.837 54.1321 61.9457 54.2423C62.0544 54.4628 62.2717 54.5731 62.4891 54.5731C62.5977 54.5731 62.7064 54.5731 62.8151 54.4628C62.9238 54.4628 62.9238 54.3526 62.9238 54.3526C62.9238 54.3526 62.9238 54.2423 63.0325 54.2423V54.1321V54.0218V53.9116V53.8013V53.6911C63.0325 53.5808 63.0325 53.5808 62.9238 53.5808C62.7064 53.2501 62.3804 53.2501 62.0544 53.4706Z" fill="#C49A6C"/>
<path d="M82.703 28.6647C83.029 28.5545 83.355 28.4442 83.681 28.334H78.8993C79.5513 28.775 80.2034 28.9955 81.0728 28.9955C81.5075 28.8852 82.0509 28.775 82.703 28.6647Z" fill="#C49A6C"/>
<path d="M82.703 28.6647C83.029 28.5545 83.355 28.4442 83.681 28.334H78.8993C79.5513 28.775 80.2034 28.9955 81.0728 28.9955C81.5075 28.8852 82.0509 28.775 82.703 28.6647Z" fill="#C49A6C"/>
<path d="M116.719 28.6646C116.936 28.5544 117.262 28.3339 117.479 28.2236H115.089C112.154 30.2081 110.524 33.4053 108.677 37.0435C106.829 40.5715 104.873 44.5404 101.178 48.1786H102.808C106.068 44.6507 107.916 41.0125 109.655 37.5948C111.72 33.7361 113.458 30.4286 116.719 28.6646Z" fill="#C49A6C"/>
<path d="M116.719 28.6646C116.936 28.5544 117.262 28.3339 117.479 28.2236H115.089C112.154 30.2081 110.524 33.4053 108.677 37.0435C106.829 40.5715 104.873 44.5404 101.178 48.1786H102.808C106.068 44.6507 107.916 41.0125 109.655 37.5948C111.72 33.7361 113.458 30.4286 116.719 28.6646Z" fill="#C49A6C"/>
<path d="M99.1131 29.6569C97.7003 31.7516 96.8309 33.5156 96.0701 35.1693C94.3313 38.8075 93.0272 41.4535 87.4847 43.9892L87.1587 43.7687C90.0929 41.7842 92.8098 36.4923 92.0491 32.7438C91.7231 31.4208 90.5276 29.1056 86.5066 29.5466C85.0938 29.7671 85.0938 30.8696 86.6153 30.7593C89.1148 30.5389 90.5276 31.3106 90.9623 33.0746C91.7231 36.4923 88.5715 42.0047 85.8545 43.2174C85.6372 43.3277 85.5285 43.5482 85.5285 43.7687C85.5285 43.9892 85.6372 44.2097 85.7459 44.3199L87.1587 45.3121C87.2673 45.4224 87.4847 45.4224 87.702 45.3121C93.8966 42.4457 95.3094 39.469 97.1569 35.7205C97.9176 34.0668 98.787 32.3028 100.2 30.3184C100.2 30.3184 100.2 30.3184 100.2 30.2081C100.635 29.3261 101.504 28.6646 102.482 28.2236H100.309C99.7651 28.6646 99.4391 29.1056 99.1131 29.6569Z" fill="#C49A6C"/>
</svg>
