<svg width="21" height="21" viewBox="0 0 21 21" fill="none" xmlns="http://www.w3.org/2000/svg">
<path fill-rule="evenodd" clip-rule="evenodd" d="M2.86417 4.89419C2.86417 4.89419 2.82693 3.91759 3.44676 2.65391C3.884 1.7602 5.58613 1.26651 5.58613 1.26651C5.58613 1.26651 6.31406 1.08152 7.77715 2.49415C8.35871 3.03247 8.72854 3.76105 8.81982 4.54824C8.87267 5.26657 7.34111 6.79812 7.34111 6.79812C7.45964 7.67748 7.8268 8.50472 8.39939 9.18256C9.0012 9.88287 10.0378 10.9748 10.582 11.4853C11.0481 11.9225 11.5682 12.4931 12.2601 12.952C13.6211 13.8541 13.9478 13.7724 13.9478 13.7724C13.9478 13.7724 15.8866 12.1484 16.4668 12.2048C16.9076 12.2493 17.5323 12.54 18.3311 13.221C18.9245 13.7256 19.3041 14.1076 19.602 14.6169C19.708 14.7927 19.7915 14.9812 19.8506 15.1779C19.8506 15.1779 19.9287 15.9839 18.677 17.2668C17.4313 18.5413 15.7136 18.2073 15.7136 18.2073C15.7136 18.2073 14.7262 18.0608 13.1105 17.3004C11.3217 16.4281 9.6919 15.262 8.28886 13.8505C6.97953 12.4979 5.263 10.4282 4.42815 8.98794C3.37708 7.1777 2.86417 4.89419 2.86417 4.89419Z" fill="black"/>
</svg>
