<svg xmlns="http://www.w3.org/2000/svg">
    <symbol viewBox="0 0 124 71" fill="none" id="logo">
        <path d="M35.6459 40.6818L36.0806 40.1305C37.0587 41.0125 37.9281 41.4535 39.2323 41.4535C40.5364 41.4535 41.5145 40.6818 41.5145 39.6895C41.5145 38.6973 40.9711 38.146 39.0149 37.8153C36.8414 37.3743 36.0806 36.6026 36.0806 35.2796C36.0806 33.9566 37.2761 32.9644 38.9062 32.9644C40.2104 32.9644 41.0798 33.2951 41.9492 34.0668L41.5145 34.6181C40.6451 33.8463 39.8843 33.6258 38.9062 33.6258C37.6021 33.6258 36.7327 34.3976 36.7327 35.3898C36.7327 36.3821 37.1674 36.9333 39.3409 37.3743C41.4058 37.8153 42.2752 38.587 42.2752 39.91C42.2752 41.3432 41.0798 42.3355 39.3409 42.3355C37.8195 42.115 36.7327 41.674 35.6459 40.6818Z" fill="#C49A6C"/>
        <path d="M43.5793 33.0746H44.3401L47.1657 41.0125L49.7739 32.9644H50.3173L52.9255 41.0125L55.7511 33.0746H56.4032L53.1429 42.115H52.5995L49.9913 34.2873L47.383 42.115H46.731L43.5793 33.0746Z" fill="#C49A6C"/>
        <path d="M58.142 33.0747H64.4452V33.7362H58.794V37.2641H63.9018V37.9256H58.794V41.5638H64.4452V42.2253H58.142V33.0747Z" fill="#C49A6C"/>
        <path d="M67.1621 33.0747H73.4654V33.7362H67.8142V37.2641H72.8133V37.9256H67.7055V41.5638H73.3567V42.2253H67.0535V33.0747H67.1621Z" fill="#C49A6C"/>
        <path d="M78.0298 33.6259H74.9869V33.0747H81.8335V33.7362H78.7906V42.1151H78.1385V33.6259H78.0298Z" fill="#C49A6C"/>
        <path d="M4.34706 39.7995C4.34706 39.5791 4.34706 39.3586 4.23839 39.2483C4.23839 39.1381 4.12971 38.9176 4.02103 38.8073C3.91236 38.6971 3.80368 38.5868 3.80368 38.4766C3.695 38.3663 3.58633 38.3663 3.47765 38.2561C3.36897 38.1458 3.15162 38.1458 3.04294 38.0356C2.82559 37.9253 2.71691 37.9253 2.49956 37.8151C2.17353 37.7048 1.95618 37.5946 1.63015 37.4843C1.30412 37.3741 1.08677 37.2638 0.869413 37.0433C0.65206 36.8228 0.434706 36.6023 0.32603 36.3818C0.108677 36.0511 0 35.7204 0 35.2794C0 34.5076 0.217353 33.8461 0.65206 33.4051C1.08677 32.9641 1.73883 32.7437 2.60824 32.7437C2.71692 32.7437 2.93427 32.7437 3.2603 32.7437C3.47765 32.7437 3.80368 32.8539 4.02103 32.8539C4.23839 32.9641 4.45574 32.9641 4.67309 33.0744C4.89045 33.1846 4.89045 33.2949 4.89045 33.5154C4.89045 33.6256 4.89045 33.7359 4.78177 33.8461C4.67309 33.9564 4.56442 33.9564 4.45574 33.9564C4.34706 33.9564 4.34706 33.9564 4.23839 33.9564C4.12971 33.9564 4.12971 33.9564 4.02103 33.8461C3.91236 33.7359 3.695 33.7359 3.47765 33.6256C3.2603 33.5154 3.04294 33.5154 2.82559 33.5154C2.60824 33.5154 2.39089 33.5154 2.17353 33.6256C1.95618 33.6256 1.73883 33.7359 1.63015 33.8461C1.30412 34.0666 1.19544 34.1769 1.08677 34.3974C0.978089 34.6179 0.978089 34.8384 0.978089 35.1691C0.978089 35.3896 0.978089 35.6101 1.08677 35.8306C1.19544 36.0511 1.19544 36.1614 1.30412 36.2716C1.4128 36.3819 1.52147 36.4921 1.63015 36.4921C1.73883 36.6023 1.8475 36.6023 1.8475 36.7126C1.95618 36.8228 2.17353 36.8228 2.39089 36.9331C2.60824 37.0433 2.71692 37.0433 2.93427 37.1536C3.2603 37.2638 3.47765 37.3741 3.80368 37.4843C4.12971 37.5946 4.34706 37.8151 4.56442 37.9253C4.78177 38.1458 4.99912 38.3663 5.1078 38.6971C5.21648 39.0278 5.32515 39.3586 5.32515 39.7995C5.32515 40.2405 5.21648 40.5713 5.1078 41.0123C4.99912 41.343 4.78177 41.6738 4.56442 41.8943C4.34706 42.1148 4.02103 42.3353 3.695 42.4455C3.36897 42.5558 2.93427 42.666 2.60824 42.666C2.39089 42.666 2.17353 42.666 1.8475 42.666C1.52147 42.666 1.30412 42.5558 1.08677 42.5558C0.869413 42.4455 0.65206 42.3353 0.434706 42.225C0.108677 41.784 0 41.6738 0 41.5635C0 41.4533 0 41.343 0.108677 41.2328C0.217353 41.1225 0.32603 41.1225 0.434706 41.1225C0.434706 41.1225 0.543383 41.1225 0.65206 41.1225C0.760736 41.1225 0.869413 41.2328 0.978089 41.2328C1.19544 41.343 1.4128 41.343 1.63015 41.4533C1.8475 41.5635 2.17353 41.5635 2.49956 41.5635C3.15162 41.5635 3.58633 41.4533 3.91236 41.1225C4.12971 40.7918 4.34706 40.3508 4.34706 39.7995Z" fill="#C49A6C"/>
        <path d="M8.47677 42.0047C8.47677 42.1149 8.47677 42.2252 8.3681 42.3354C8.25942 42.4457 8.15074 42.4457 8.04207 42.4457C7.93339 42.4457 7.82471 42.4457 7.71604 42.3354C7.60736 42.2252 7.60736 42.1149 7.60736 42.0047V32.8541C7.60736 32.7438 7.60736 32.6336 7.71604 32.5233C7.82471 32.4131 7.93339 32.4131 8.04207 32.4131C8.15074 32.4131 8.25942 32.4131 8.3681 32.5233C8.47677 32.6336 8.47677 32.7438 8.47677 32.8541V36.0513C8.8028 35.8308 9.02016 35.6103 9.34619 35.5C9.67222 35.3898 9.99825 35.2795 10.3243 35.2795C10.9763 35.2795 11.5197 35.5 11.8457 35.941C12.1718 36.382 12.2805 36.9333 12.2805 37.4845V41.8945C12.2805 42.0047 12.2805 42.1149 12.1718 42.2252C12.0631 42.3354 11.9544 42.3354 11.8457 42.3354C11.7371 42.3354 11.6284 42.3354 11.5197 42.2252C11.411 42.1149 11.411 42.0047 11.411 41.8945V37.5948C11.411 37.1538 11.3024 36.823 11.085 36.4923C10.8677 36.2718 10.5416 36.1615 10.1069 36.1615C9.78089 36.1615 9.56354 36.2718 9.23751 36.382C8.91148 36.4923 8.69413 36.7128 8.47677 37.0435V42.0047Z" fill="#C49A6C"/>
        <path d="M17.3883 41.6738C17.7143 41.6738 17.9316 41.6738 18.149 41.5636C18.3663 41.4533 18.5837 41.3431 18.8011 41.3431C18.8011 41.3431 18.8011 41.3431 18.9097 41.3431C18.9097 41.3431 18.9097 41.3431 19.0184 41.3431C19.1271 41.3431 19.2358 41.3431 19.2358 41.4533C19.3444 41.5636 19.3444 41.5636 19.3444 41.6738C19.3444 41.7841 19.2358 42.0046 19.1271 42.0046C19.0184 42.1148 18.8011 42.225 18.5837 42.225C18.3663 42.3353 18.149 42.3353 17.9316 42.3353C17.7143 42.3353 17.4969 42.3353 17.2796 42.3353C16.9536 42.3353 16.6275 42.2251 16.3015 42.1148C15.9755 42.0046 15.7581 41.8943 15.5408 41.6738C15.3234 41.4533 15.2147 41.2328 15.1061 41.0123C14.9974 40.7918 14.9974 40.4611 14.9974 40.1303V37.5946C14.9974 37.2639 14.9974 36.9331 15.1061 36.7126C15.2147 36.4921 15.3234 36.1614 15.5408 36.0511C15.7581 35.8306 15.9755 35.7204 16.3015 35.6101C16.6275 35.4999 16.9536 35.3896 17.2796 35.3896C18.0403 35.3896 18.5837 35.6101 18.9097 35.9409C19.2358 36.3819 19.4531 36.8229 19.4531 37.4844C19.4531 38.0356 19.2358 38.5869 18.9097 38.9176C18.5837 39.2483 18.0403 39.4688 17.2796 39.4688C17.0622 39.4688 16.8449 39.4688 16.5188 39.4688C16.3015 39.4688 15.9755 39.3586 15.7581 39.3586V40.3508C15.7581 40.7918 15.8668 41.1226 16.1928 41.3431C16.5188 41.5636 16.8449 41.6738 17.3883 41.6738ZM18.6924 37.5946C18.6924 37.1536 18.5837 36.7126 18.3663 36.4921C18.149 36.2716 17.823 36.1614 17.3883 36.1614C16.9536 36.1614 16.5188 36.2716 16.3015 36.4921C16.0841 36.7126 15.8668 37.0434 15.8668 37.4844V38.5869C16.1928 38.5869 16.4102 38.6971 16.7362 38.6971C17.0622 38.6971 17.2796 38.6971 17.3883 38.6971C17.7143 38.6971 17.9316 38.6971 18.0403 38.5869C18.2577 38.4766 18.3663 38.4766 18.475 38.3664C18.5837 38.2561 18.5837 38.1459 18.6924 37.9254C18.5837 37.8151 18.6924 37.7049 18.6924 37.5946Z" fill="#C49A6C"/>
        <path d="M21.9527 32.9644C21.9527 32.8542 21.9527 32.7439 22.0613 32.6337C22.17 32.5234 22.2787 32.5234 22.3874 32.5234C22.4961 32.5234 22.6047 32.5234 22.7134 32.6337C22.8221 32.7439 22.8221 32.8542 22.8221 32.9644V41.1228C22.8221 41.4536 22.9308 41.6741 23.0394 41.8946C23.0394 41.8946 23.0394 42.0048 23.0394 42.1151C23.0394 42.2253 23.0394 42.3355 22.9308 42.4458C22.8221 42.556 22.8221 42.556 22.6047 42.556C22.4961 42.556 22.4961 42.556 22.3874 42.556C22.2787 42.556 22.17 42.4458 22.17 42.3355C22.0613 42.2253 22.0613 42.115 21.9527 41.8946C21.9527 41.6741 21.844 41.4536 21.844 41.2331V32.9644H21.9527Z" fill="#C49A6C"/>
        <path d="M25.865 32.9644C25.865 32.8542 25.865 32.7439 25.9737 32.6337C26.0824 32.5234 26.1911 32.5234 26.2997 32.5234C26.4084 32.5234 26.5171 32.5234 26.6258 32.6337C26.7344 32.7439 26.7344 32.8542 26.7344 32.9644V41.1228C26.7344 41.4536 26.8431 41.6741 26.9518 41.8946C26.9518 41.8946 26.9518 42.0048 26.9518 42.1151C26.9518 42.2253 26.9518 42.3355 26.8431 42.4458C26.7344 42.556 26.6258 42.556 26.5171 42.556C26.4084 42.556 26.4084 42.556 26.2997 42.556C26.1911 42.556 26.0824 42.4458 26.0824 42.3355C25.9737 42.2253 25.9737 42.115 25.865 41.8946C25.865 41.6741 25.7563 41.4536 25.7563 41.2331V32.9644H25.865Z" fill="#C49A6C"/>
        <path d="M30.8642 42.0047C30.8642 42.1149 30.8642 42.2252 30.7555 42.3354C30.6468 42.4457 30.5381 42.4457 30.4295 42.4457C30.3208 42.4457 30.2121 42.4457 30.1034 42.3354C29.9948 42.2252 29.9948 42.1149 29.9948 42.0047V35.941C29.9948 35.8307 29.9948 35.7205 30.1034 35.6102C30.2121 35.5 30.3208 35.5 30.4295 35.5C30.5381 35.5 30.6468 35.5 30.7555 35.6102C30.8642 35.7205 30.8642 35.8307 30.8642 35.941V42.0047Z" fill="#C49A6C"/>
        <path fill-rule="evenodd" clip-rule="evenodd" d="M30.9728 33.7359C30.8642 33.2949 30.5381 32.7437 30.1034 32.7437C29.7774 32.7437 29.6687 33.1846 29.7774 33.5154C29.7774 33.8461 29.8861 34.0666 30.2121 34.2871C30.6468 34.5076 31.0815 34.2871 30.9728 33.7359Z" fill="#C49A6C"/>
        <path d="M53.6863 18.1909C53.5776 18.1909 53.5776 18.1909 53.4689 18.3012L48.3611 21.1676C48.2524 21.1676 48.2524 21.2779 48.2524 21.2779C50.0999 20.1754 52.0561 19.1832 54.121 18.1909C54.0123 18.1909 53.7949 18.1909 53.6863 18.1909Z" fill="#C49A6C"/>
        <path d="M56.1859 23.8138C56.4032 25.1368 56.4032 26.6803 56.1859 28.334H57.3813C57.5986 26.6803 57.5986 25.0265 57.3813 23.7036C57.0553 21.4986 56.4032 19.8449 55.5338 18.9629C55.0991 19.1834 54.6644 19.2936 54.2297 19.5141C55.0991 19.8449 55.8598 21.4986 56.1859 23.8138Z" fill="#C49A6C"/>
        <path d="M44.7748 28.2238C46.2962 25.3574 48.4698 22.8216 48.9045 22.1602C47.9264 22.7114 46.8396 23.3729 45.9702 24.0344C45.1008 25.2471 44.1227 26.6803 43.4706 28.2238H44.7748Z" fill="#C49A6C"/>
        <path d="M49.9912 56.9985C49.9912 56.9985 50.0999 57.1088 50.0999 57.219C49.9912 57.1088 49.9912 56.9985 49.9912 56.9985Z" fill="#C49A6C"/>
        <path d="M49.7739 56.8882C49.8826 56.8882 49.8826 56.9984 49.9913 56.9984C49.8826 56.8882 49.8826 56.8882 49.7739 56.8882Z" fill="#C49A6C"/>
        <path d="M53.9036 19.4038L49.0132 22.16C50.6433 21.1678 52.3822 20.2858 54.2297 19.4038C54.121 19.4038 54.0123 19.4038 53.9036 19.4038Z" fill="#C49A6C"/>
        <path d="M45.9703 24.034C47.057 22.4906 48.0351 21.3881 48.1438 21.2778C44.5575 23.3726 41.4058 25.6878 38.7976 28.2235H40.5364C42.1666 26.7903 44.0141 25.357 45.9703 24.034Z" fill="#C49A6C"/>
        <path d="M49.5566 57.9908C49.4479 57.9908 49.4479 57.9908 49.3393 57.9908C49.1219 57.8806 48.9045 57.7703 48.6872 57.6601C46.9484 59.2036 38.6889 59.5343 34.0159 58.1011C33.3638 57.8806 31.4076 57.2191 31.7336 56.3371C32.0597 55.3449 33.1464 55.0141 34.9939 54.5731C36.6241 54.2424 38.4716 53.8014 39.8844 52.4784C40.7538 51.5964 41.6232 49.9427 42.1666 48.1787H40.9712C40.5365 49.6119 39.7757 50.9349 39.1237 51.5964C37.9282 52.6989 36.2981 53.0296 34.7766 53.3604C32.9291 53.8014 31.0816 54.1321 30.6469 55.8961C30.3209 56.8883 30.6469 58.2113 33.7985 59.0933C35.7547 59.6445 38.6889 60.0855 41.5145 60.0855C45.5356 60.0855 49.4479 59.3138 50.2087 57.4396C49.9913 57.8806 49.774 57.9908 49.5566 57.9908Z" fill="#C49A6C"/>
        <path d="M28.2559 50.8243C28.0386 50.8243 27.9299 50.8243 27.8212 50.8243C27.9299 50.4935 28.3646 49.6116 28.6906 49.0603C28.7993 48.8398 29.0167 48.5091 29.1253 48.2886H27.7125C27.7125 48.3988 27.6039 48.3988 27.6039 48.5091C26.8431 49.8321 26.1911 50.8243 26.7345 51.596C27.1692 52.2575 28.0386 52.1473 28.3646 52.037C31.5162 51.596 32.603 50.0525 33.1464 48.2886H31.8423C31.4076 49.5013 30.5381 50.4935 28.2559 50.8243Z" fill="#C49A6C"/>
        <path d="M84.4417 10.8045C84.7677 10.8045 84.9851 10.4738 84.9851 10.143C84.9851 9.81229 84.6591 9.5918 84.333 9.5918C72.922 11.3558 62.7064 14.2222 54.2296 18.1912C54.773 18.1912 55.2077 18.5219 55.6424 18.8527C63.6845 15.2145 73.574 12.4583 84.4417 10.8045Z" fill="#C49A6C"/>
        <path d="M45.9702 24.0342C46.9483 23.3727 47.9264 22.8215 48.9045 22.16L53.7949 19.4038C53.9036 19.4038 54.0123 19.4038 54.121 19.514C54.5557 19.2935 54.9904 19.073 55.4251 18.9628C54.9904 18.5218 54.5557 18.3013 54.0123 18.3013C51.9474 19.2935 49.9912 20.2857 48.1437 21.3882C48.1437 21.3882 47.1657 22.4907 45.9702 24.0342Z" fill="#C49A6C"/>
        <path d="M45.9702 24.0342C46.9483 23.3727 47.9264 22.8215 48.9045 22.16L53.7949 19.4038C53.9036 19.4038 54.0123 19.4038 54.121 19.514C54.5557 19.2935 54.9904 19.073 55.4251 18.9628C54.9904 18.5218 54.5557 18.3013 54.0123 18.3013C51.9474 19.2935 49.9912 20.2857 48.1437 21.3882C48.1437 21.3882 47.1657 22.4907 45.9702 24.0342Z" fill="#C49A6C"/>
        <path d="M90.3103 10.8042C89.8756 10.8042 89.4409 10.9144 89.1148 10.9144C89.4409 12.7887 91.071 24.6955 82.2682 27.4517C80.5294 28.003 79.2252 27.562 78.4645 26.239C76.617 23.0418 78.2472 15.6551 80.638 13.4502C80.8554 13.2297 80.8554 12.7887 80.638 12.5682C80.4207 12.3477 79.986 12.3477 79.7686 12.5682C77.0517 15.1039 75.3129 23.0418 77.3777 26.7902C77.7038 27.4517 78.1385 27.8927 78.6819 28.2235H83.681C92.1578 24.8058 90.745 13.2297 90.3103 10.8042Z" fill="#C49A6C"/>
        <path d="M60.3156 25.0263C60.6416 21.2779 64.7713 15.8757 68.1403 15.8757C68.7923 15.8757 69.4444 16.0962 69.9878 16.5372L70.0965 17.1987C70.0965 17.4192 70.3138 17.6397 70.5312 17.6397C72.1613 18.0807 72.922 19.7344 73.1394 20.9471C73.6828 23.2624 73.1394 26.3493 72.0526 28.3338H73.3567C74.3348 26.1288 74.7695 23.1521 74.3348 20.7266C73.9001 18.6319 72.8134 17.1987 71.1832 16.5372L71.0745 15.986C71.0745 15.8757 70.9659 15.7655 70.8572 15.6552C70.0964 14.8835 69.1184 14.5527 68.0316 14.5527C63.9019 14.5527 59.3375 20.3959 59.0114 24.8058C58.9028 26.0186 58.9028 27.2313 59.0114 28.2235H60.2069C60.2069 27.3416 60.2069 26.2391 60.3156 25.0263Z" fill="#C49A6C"/>
        <path d="M44.3401 48.6197C43.688 52.6989 45.2095 55.8961 48.6871 57.6601C48.7958 57.5498 48.9045 57.3293 49.0132 57.2191C49.1219 56.8883 49.4479 56.6678 49.7739 56.7781C49.7739 56.7781 49.7739 56.7781 49.8826 56.7781C45.3182 54.7936 45.2095 50.9349 45.6442 48.73C45.6442 48.5095 45.7529 48.3992 45.7529 48.1787H44.5574C44.3401 48.3992 44.3401 48.5095 44.3401 48.6197Z" fill="#C49A6C"/>
        <path d="M62.4891 54.5727C62.2718 54.5727 62.0544 54.4625 61.9457 54.242C61.837 54.1317 61.837 53.9112 61.7284 53.801C59.4462 55.7855 57.0553 56.5572 55.5338 55.8957C54.5557 55.4547 54.121 54.4625 54.0123 53.5805C56.2945 52.919 57.816 50.8243 58.3594 48.2886H57.164C56.6206 50.3833 55.3165 52.2575 53.3603 52.478C53.0342 52.478 52.8169 52.8088 52.8169 53.1395C52.8169 55.0137 53.6863 56.4469 55.0991 57.1084C57.164 57.9904 60.0982 56.9982 62.9238 54.4625L62.8151 54.5727C62.7065 54.5727 62.5978 54.5727 62.4891 54.5727Z" fill="#C49A6C"/>
        <path d="M48.9045 57.2188C48.9045 57.3291 48.7958 57.5496 48.5785 57.6598C48.7958 57.7701 49.0132 57.8803 49.2306 57.9906C49.3392 57.9906 49.3392 57.9906 49.4479 57.9906C49.6653 57.9906 49.8826 57.8803 49.9913 57.6598C49.9913 57.5496 49.9913 57.5496 49.9913 57.4393C49.9913 57.3291 49.9913 57.3291 49.9913 57.2188C49.9913 57.1086 49.8826 57.1086 49.8826 56.9983C49.8826 56.9983 49.7739 56.8881 49.6653 56.8881C49.6653 56.8881 49.6653 56.8881 49.5566 56.8881C49.3392 56.6676 49.0132 56.8881 48.9045 57.2188Z" fill="#C49A6C"/>
        <path d="M48.9045 57.2188C48.9045 57.3291 48.7958 57.5496 48.5785 57.6598C48.7958 57.7701 49.0132 57.8803 49.2306 57.9906C49.3392 57.9906 49.3392 57.9906 49.4479 57.9906C49.6653 57.9906 49.8826 57.8803 49.9913 57.6598C49.9913 57.5496 49.9913 57.5496 49.9913 57.4393C49.9913 57.3291 49.9913 57.3291 49.9913 57.2188C49.9913 57.1086 49.8826 57.1086 49.8826 56.9983C49.8826 56.9983 49.7739 56.8881 49.6653 56.8881C49.6653 56.8881 49.6653 56.8881 49.5566 56.8881C49.3392 56.6676 49.0132 56.8881 48.9045 57.2188Z" fill="#C49A6C"/>
        <path d="M39.5583 17.9705C39.993 17.6398 40.319 17.1988 40.6451 16.9783C51.078 6.8354 61.0763 4.40994 74.0088 1.98447C76.617 1.54348 79.2253 1.21273 82.2682 1.21273C86.8326 1.21273 91.2884 1.76398 95.5267 2.31522C99.5478 2.86646 103.351 3.30745 106.72 3.19721C106.829 3.19721 107.046 3.19721 107.264 3.19721C113.132 3.19721 119.87 5.84317 121.174 8.59938C124.217 15.2143 123.457 23.9239 116.284 27.6724C115.849 27.8929 115.523 28.1134 115.197 28.3339H117.588C124.761 24.1444 125.413 15.104 122.261 8.15839C120.631 4.52019 112.589 1.87422 106.829 2.09472C103.351 2.09472 99.6565 1.65373 95.6354 1.10248C91.397 0.551242 86.9413 0 82.2682 0C79.2253 0 76.5083 0.220497 73.7914 0.771739C60.6416 3.19721 50.426 5.73292 39.7757 15.986C39.4496 16.3168 39.1236 16.6475 38.6889 16.9783C36.0807 19.514 31.8423 23.5932 27.6039 28.2236H29.234C33.1464 24.0342 37.0587 20.2857 39.5583 17.9705Z" fill="#C49A6C"/>
        <path d="M99.2218 50.0528C89.2235 58.4317 72.3786 65.3774 60.9676 67.9131C56.8379 68.7951 48.4698 69.7873 40.9711 69.7873C32.7117 69.7873 27.1692 68.6848 24.887 66.7003C21.0833 63.2826 17.2796 63.0621 14.454 62.8416C11.9545 62.7314 11.085 62.5109 10.9764 61.1879C10.759 59.0932 11.085 58.4317 12.1718 56.2267C12.9325 54.6833 14.128 52.2578 15.7581 48.0684H14.454C12.9325 51.9271 11.8458 54.132 11.085 55.5653C9.99827 57.7702 9.45489 58.6522 9.78092 61.1879C9.99827 63.6134 12.0631 63.7236 14.3453 63.8339C16.9536 63.9441 20.4312 64.2749 24.0176 67.3618C26.6258 69.677 32.277 70.7795 40.8624 70.7795C48.4698 70.7795 57.0552 69.7873 61.185 68.9053C72.8134 66.5901 89.7669 59.5342 99.9825 50.9348C101.069 50.0528 102.047 49.1708 102.808 48.1786H101.178C100.635 48.8401 99.9825 49.5016 99.2218 50.0528Z" fill="#C49A6C"/>
        <path d="M89.5496 9.92213C89.8756 9.92213 90.2016 10.1426 90.3103 10.3631C90.3103 10.3631 90.3103 10.4734 90.419 10.8041C94.5487 10.4734 100.417 10.3631 102.265 10.3631C102.373 11.9066 101.939 13.8911 101.069 14.5526C100.743 14.8833 100.417 14.8833 99.9825 14.8833C96.9396 14.2218 94.9834 15.5448 93.8966 16.7575C91.7231 19.183 91.3971 22.8212 92.1578 25.0262C92.8098 27.0106 94.2226 27.4516 95.3094 27.4516H95.4181C98.7871 27.4516 103.351 23.5929 105.09 20.6162C105.851 22.0495 106.177 23.2622 105.96 24.1442C105.634 25.3569 104.33 26.0184 102.917 26.6799C102.047 27.1209 101.069 27.5619 100.309 28.2234H102.591C102.917 28.1131 103.134 27.8926 103.46 27.7824C105.09 27.0106 106.72 26.2389 107.155 24.4749C107.59 23.0417 107.046 21.388 105.634 19.0727C105.525 18.8523 105.308 18.742 105.09 18.742C104.873 18.742 104.656 18.9625 104.547 19.183C103.569 21.7187 98.5697 26.2389 95.5268 26.2389C95.5268 26.2389 95.5268 26.2389 95.4181 26.2389C94.44 26.2389 93.7879 25.6877 93.4619 24.5852C92.8098 22.6007 93.2446 19.5137 94.9834 17.5293C96.1788 16.096 97.9176 15.655 99.9825 16.096C100.743 16.3165 101.504 16.096 102.047 15.5448C103.46 14.2218 103.678 11.2451 103.569 9.70163C103.569 9.37089 103.243 9.15039 103.025 9.15039C102.591 9.15039 91.5057 9.26064 87.5934 9.92213C87.2673 9.92213 87.05 10.2529 87.05 10.5836C87.05 10.9144 87.376 11.1349 87.702 11.1349C88.1368 11.0246 88.7888 11.0246 89.4409 10.9144C89.4409 10.8041 89.4409 10.6939 89.4409 10.6939C89.0062 10.3631 89.2235 10.0324 89.5496 9.92213Z" fill="#C49A6C"/>
        <path d="M79.7687 49.0607C79.334 50.0529 78.5732 50.1632 77.5951 50.1632C76.3997 50.2734 74.8782 50.3837 74.2262 52.5886L71.6179 53.1399C71.6179 53.1399 71.6179 53.1399 71.5093 53.1399C69.7704 53.1399 69.5531 52.8091 69.5531 52.6989C69.3357 52.2579 70.4225 50.8247 71.1832 49.7222C71.5092 49.1709 71.944 48.73 72.27 48.1787H70.8572C70.6398 48.5095 70.4225 48.73 70.2051 49.0607C68.901 50.8247 67.9229 52.1477 68.4663 53.2501C68.7923 54.0219 69.7704 54.3526 71.5093 54.3526C71.6179 54.3526 71.6179 54.3526 71.7266 54.3526L74.7696 53.8014C74.9869 53.8014 75.2043 53.5809 75.2043 53.3604C75.5303 51.7067 76.3997 51.5964 77.5951 51.4862C78.7906 51.3759 80.4207 51.1554 81.0728 48.6197C81.0728 48.5095 81.0728 48.289 81.0728 48.1787H77.9212C78.4646 48.73 79.0079 49.0607 79.7687 49.0607Z" fill="#C49A6C"/>
        <path d="M61.7283 53.8014C61.837 53.6911 61.9457 53.5809 62.0544 53.4706C62.2717 53.2501 62.7064 53.2501 62.9238 53.4706L63.0325 53.5809C62.0544 51.7067 61.4023 49.8324 61.1849 48.1787H59.9895C60.2069 49.9427 60.7502 51.8169 61.7283 53.8014Z" fill="#C49A6C"/>
        <path d="M63.0324 54.2422C62.9238 54.3525 62.9238 54.3525 63.0324 54.2422C62.9238 54.3525 62.9238 54.3525 63.0324 54.2422Z" fill="#C49A6C"/>
        <path d="M90.3103 10.3634C90.2016 10.1429 89.8756 9.92236 89.5495 9.92236C89.2235 10.0326 89.0061 10.3634 89.1148 10.6941C89.1148 10.6941 89.1148 10.8044 89.1148 10.9146C89.4408 10.9146 89.8756 10.8044 90.3103 10.8044C90.3103 10.5839 90.3103 10.4736 90.3103 10.3634Z" fill="#C49A6C"/>
        <path d="M90.3103 10.3634C90.2016 10.1429 89.8756 9.92236 89.5495 9.92236C89.2235 10.0326 89.0061 10.3634 89.1148 10.6941C89.1148 10.6941 89.1148 10.8044 89.1148 10.9146C89.4408 10.9146 89.8756 10.8044 90.3103 10.8044C90.3103 10.5839 90.3103 10.4736 90.3103 10.3634Z" fill="#C49A6C"/>
        <path d="M62.0544 53.4706C61.9457 53.5808 61.837 53.6911 61.7283 53.8013C61.837 53.9116 61.837 54.1321 61.9457 54.2423C62.0544 54.4628 62.2717 54.5731 62.4891 54.5731C62.5977 54.5731 62.7064 54.5731 62.8151 54.4628C62.9238 54.4628 62.9238 54.3526 62.9238 54.3526C62.9238 54.3526 62.9238 54.2423 63.0325 54.2423V54.1321V54.0218V53.9116V53.8013V53.6911C63.0325 53.5808 63.0325 53.5808 62.9238 53.5808C62.7064 53.2501 62.3804 53.2501 62.0544 53.4706Z" fill="#C49A6C"/>
        <path d="M62.0544 53.4706C61.9457 53.5808 61.837 53.6911 61.7283 53.8013C61.837 53.9116 61.837 54.1321 61.9457 54.2423C62.0544 54.4628 62.2717 54.5731 62.4891 54.5731C62.5977 54.5731 62.7064 54.5731 62.8151 54.4628C62.9238 54.4628 62.9238 54.3526 62.9238 54.3526C62.9238 54.3526 62.9238 54.2423 63.0325 54.2423V54.1321V54.0218V53.9116V53.8013V53.6911C63.0325 53.5808 63.0325 53.5808 62.9238 53.5808C62.7064 53.2501 62.3804 53.2501 62.0544 53.4706Z" fill="#C49A6C"/>
        <path d="M82.703 28.6647C83.029 28.5545 83.355 28.4442 83.681 28.334H78.8993C79.5513 28.775 80.2034 28.9955 81.0728 28.9955C81.5075 28.8852 82.0509 28.775 82.703 28.6647Z" fill="#C49A6C"/>
        <path d="M82.703 28.6647C83.029 28.5545 83.355 28.4442 83.681 28.334H78.8993C79.5513 28.775 80.2034 28.9955 81.0728 28.9955C81.5075 28.8852 82.0509 28.775 82.703 28.6647Z" fill="#C49A6C"/>
        <path d="M116.719 28.6646C116.936 28.5544 117.262 28.3339 117.479 28.2236H115.089C112.154 30.2081 110.524 33.4053 108.677 37.0435C106.829 40.5715 104.873 44.5404 101.178 48.1786H102.808C106.068 44.6507 107.916 41.0125 109.655 37.5948C111.72 33.7361 113.458 30.4286 116.719 28.6646Z" fill="#C49A6C"/>
        <path d="M116.719 28.6646C116.936 28.5544 117.262 28.3339 117.479 28.2236H115.089C112.154 30.2081 110.524 33.4053 108.677 37.0435C106.829 40.5715 104.873 44.5404 101.178 48.1786H102.808C106.068 44.6507 107.916 41.0125 109.655 37.5948C111.72 33.7361 113.458 30.4286 116.719 28.6646Z" fill="#C49A6C"/>
        <path d="M99.1131 29.6569C97.7003 31.7516 96.8309 33.5156 96.0701 35.1693C94.3313 38.8075 93.0272 41.4535 87.4847 43.9892L87.1587 43.7687C90.0929 41.7842 92.8098 36.4923 92.0491 32.7438C91.7231 31.4208 90.5276 29.1056 86.5066 29.5466C85.0938 29.7671 85.0938 30.8696 86.6153 30.7593C89.1148 30.5389 90.5276 31.3106 90.9623 33.0746C91.7231 36.4923 88.5715 42.0047 85.8545 43.2174C85.6372 43.3277 85.5285 43.5482 85.5285 43.7687C85.5285 43.9892 85.6372 44.2097 85.7459 44.3199L87.1587 45.3121C87.2673 45.4224 87.4847 45.4224 87.702 45.3121C93.8966 42.4457 95.3094 39.469 97.1569 35.7205C97.9176 34.0668 98.787 32.3028 100.2 30.3184C100.2 30.3184 100.2 30.3184 100.2 30.2081C100.635 29.3261 101.504 28.6646 102.482 28.2236H100.309C99.7651 28.6646 99.4391 29.1056 99.1131 29.6569Z" fill="#C49A6C"/>
    </symbol>
    <symbol viewBox="0 0 21 21" fill="none" xmlns="http://www.w3.org/2000/svg" id="phone">
        <svg>
            <path fill-rule="evenodd" clip-rule="evenodd" d="M2.86417 4.89419C2.86417 4.89419 2.82693 3.91759 3.44676 2.65391C3.884 1.7602 5.58613 1.26651 5.58613 1.26651C5.58613 1.26651 6.31406 1.08152 7.77715 2.49415C8.35871 3.03247 8.72854 3.76105 8.81982 4.54824C8.87267 5.26657 7.34111 6.79812 7.34111 6.79812C7.45964 7.67748 7.8268 8.50472 8.39939 9.18256C9.0012 9.88287 10.0378 10.9748 10.582 11.4853C11.0481 11.9225 11.5682 12.4931 12.2601 12.952C13.6211 13.8541 13.9478 13.7724 13.9478 13.7724C13.9478 13.7724 15.8866 12.1484 16.4668 12.2048C16.9076 12.2493 17.5323 12.54 18.3311 13.221C18.9245 13.7256 19.3041 14.1076 19.602 14.6169C19.708 14.7927 19.7915 14.9812 19.8506 15.1779C19.8506 15.1779 19.9287 15.9839 18.677 17.2668C17.4313 18.5413 15.7136 18.2073 15.7136 18.2073C15.7136 18.2073 14.7262 18.0608 13.1105 17.3004C11.3217 16.4281 9.6919 15.262 8.28886 13.8505C6.97953 12.4979 5.263 10.4282 4.42815 8.98794C3.37708 7.1777 2.86417 4.89419 2.86417 4.89419Z" fill="black"/>
        </svg>
    </symbol>
    <symbol viewBox="0 0 31 31" fill="none" xmlns="http://www.w3.org/2000/svg" id="beans">
        <path d="M29.3587 4.91185C29.0437 4.17021 28.7625 3.22386 29.0673 1.82219C29.1425 1.47719 29.0616 1.13539 28.839 0.859262C28.392 0.305099 27.4329 0.208169 26.9017 0.693459C26.4476 1.10796 26.1664 1.72335 26.0656 2.52111C26.0057 2.99811 25.9764 3.39731 25.9509 3.73912C25.8692 4.8602 25.8546 5.06235 25.0287 5.5521C21.6515 7.55831 20.1101 9.4644 19.3417 12.584C19.0394 13.811 18.2825 14.3549 17.0772 14.881C15.4951 15.5717 13.1962 17.2157 11.9246 19.5771C11.028 21.2421 10.4974 21.3741 9.89673 21.3741C9.56448 21.3741 9.16847 21.3161 8.70996 21.2491C8.43639 21.2089 8.16218 21.1892 7.89371 21.1892C3.99162 21.1892 1.90442 25.3393 1.18892 27.1236C1.04671 27.4769 1.06521 27.8736 1.23866 28.2122C1.41275 28.5514 1.72523 28.7976 2.09637 28.8888C2.56444 29.0036 3.1811 29.2382 3.55606 29.4079C4.60189 29.8798 5.66494 30.1195 6.71651 30.1195C9.57979 30.1195 11.8003 28.4073 13.4143 26.9157C14.9556 25.4911 15.2745 25.3495 16.1245 24.972C16.2744 24.9057 16.4383 24.8324 16.6245 24.7463C16.8139 24.6583 17.0619 24.5786 17.3489 24.4861C18.7882 24.0218 21.1974 23.2451 22.8006 19.1587C23.2036 18.1327 24.4089 17.604 25.4726 17.1372C26.0242 16.8955 26.5445 16.6672 26.9431 16.3771C29.5111 14.5073 31.6851 10.384 29.3587 4.91185ZM26.1932 15.3446C25.9062 15.5532 25.4471 15.7547 24.9611 15.9683C23.7355 16.5059 22.2101 17.1755 21.6145 18.6919C20.2313 22.2159 18.3393 22.8255 16.958 23.2713C16.6442 23.3727 16.3483 23.4677 16.0882 23.5888C15.909 23.6717 15.7508 23.7419 15.6067 23.8063C14.6725 24.2214 14.2458 24.4115 12.5489 25.9789C11.1052 27.313 9.13786 28.8441 6.71651 28.8441C5.84733 28.8441 4.96092 28.6426 4.08153 28.246C3.75248 28.0974 3.02805 27.8047 2.37249 27.6C2.9917 26.0567 4.77025 22.4659 7.89371 22.4659C8.10032 22.4659 8.31331 22.4818 8.52567 22.513C9.01223 22.5838 9.47202 22.6508 9.89673 22.6508C11.2251 22.6508 12.0789 21.9818 13.0476 20.1829C14.1649 18.1084 16.1915 16.6609 17.5874 16.0512C18.8762 15.4894 20.1306 14.7178 20.5801 12.8908C21.2637 10.1136 22.5985 8.48043 25.6798 6.65023C27.0777 5.81994 27.1357 5.02983 27.2224 3.8335C27.246 3.51019 27.2734 3.13203 27.3302 2.68181C27.3908 2.19971 27.54 1.83813 27.7696 1.63981C27.7804 1.63981 27.7906 1.64108 27.8002 1.64363C27.4488 3.3565 27.8187 4.55602 28.1828 5.41245C30.8069 11.5784 26.9858 14.7675 26.1932 15.3446Z" fill="#FFD17E"/>
        <path d="M2.71175 15.0717C2.79465 15.08 2.87691 15.0845 2.95854 15.0845C4.13446 15.0845 5.10568 14.2472 5.21791 13.1376C5.27722 12.5502 5.08846 11.9757 4.68671 11.5197C4.29707 11.0778 3.7512 10.8017 3.14921 10.7404C1.87317 10.6116 0.762934 11.4878 0.642408 12.6746C0.583102 13.2619 0.771862 13.8365 1.17361 14.2924C1.56389 14.7344 2.10976 15.0105 2.71175 15.0717ZM2.90306 12.0031C2.9426 12.0031 2.98213 12.005 3.02167 12.0095C3.3029 12.0375 3.55479 12.1638 3.73079 12.3634C3.89468 12.5496 3.97248 12.7785 3.94889 13.0087C3.89915 13.4991 3.40812 13.8626 2.83993 13.802C2.5587 13.774 2.30681 13.6484 2.1308 13.4481C1.96691 13.2619 1.88911 13.033 1.91271 12.8021C1.95862 12.3468 2.38461 12.0031 2.90306 12.0031Z" fill="#FFD17E"/>
        <path d="M12.7103 8.43324C12.7708 8.43898 12.8314 8.44217 12.8914 8.44217C13.9372 8.44217 14.816 7.55257 14.9358 6.37346C15.0621 5.12676 14.2694 4.02162 13.1681 3.91002C12.0451 3.80416 11.0688 4.72309 10.9426 5.9698C10.8839 6.5533 11.0223 7.12595 11.3316 7.58254C11.6612 8.06783 12.1638 8.37776 12.7103 8.43324ZM13.0355 5.17841C13.0368 5.17841 13.038 5.17841 13.0393 5.17841C13.4341 5.21859 13.721 5.70643 13.6662 6.24465C13.6145 6.7529 13.267 7.16613 12.8914 7.16613L12.8384 7.16357C12.6057 7.13998 12.4558 6.96716 12.3869 6.86641C12.2467 6.65979 12.1829 6.3792 12.2116 6.09734C12.2632 5.591 12.6089 5.17841 13.0355 5.17841Z" fill="#FFD17E"/>
        <path d="M8.4721 18.3233C8.54799 18.331 8.62324 18.3348 8.69785 18.3348C9.81319 18.3348 10.7366 17.5179 10.8463 16.4351C10.9037 15.8676 10.7296 15.3128 10.3565 14.8715C9.98919 14.4372 9.47138 14.1668 8.89809 14.1081C7.689 13.9876 6.64062 14.8415 6.52393 15.997C6.46653 16.5646 6.64063 17.1194 7.01368 17.5607C7.38163 17.9943 7.89945 18.2653 8.4721 18.3233ZM8.67298 15.3721C8.7055 15.3721 8.73802 15.3733 8.77055 15.3772C9.01287 15.4014 9.23097 15.5143 9.38338 15.6954C9.53069 15.8695 9.59956 16.0863 9.57724 16.3063C9.53069 16.7661 9.10343 17.1085 8.60028 17.0543C8.35795 17.0301 8.13986 16.9172 7.98745 16.7361C7.84014 16.562 7.77127 16.3452 7.79359 16.1252C7.83695 15.696 8.21511 15.3721 8.67298 15.3721Z" fill="#FFD17E"/>
    </symbol>
    <symbol viewBox="0 0 32 32" fill="none" xmlns="http://www.w3.org/2000/svg" id="sugar">
        <path d="M1 26.048V25.298C0.585786 25.298 0.25 25.6338 0.25 26.048H1ZM1.70622 26.048H2.45622C2.45622 25.6338 2.12044 25.298 1.70622 25.298V26.048ZM1.70622 26.6999V27.4499C2.12044 27.4499 2.45622 27.1141 2.45622 26.6999H1.70622ZM1 26.6999H0.25C0.25 27.1141 0.585786 27.4499 1 27.4499L1 26.6999ZM11.9362 30.053V29.303C11.522 29.303 11.1862 29.6388 11.1862 30.053H11.9362ZM12.6424 30.053H13.3924C13.3924 29.6388 13.0566 29.303 12.6424 29.303V30.053ZM12.6424 30.705V31.455C13.0566 31.455 13.3924 31.1192 13.3924 30.705H12.6424ZM11.9362 30.705H11.1862C11.1862 31.1192 11.522 31.455 11.9362 31.455V30.705ZM14.7078 27.8522V27.1022C14.2936 27.1022 13.9578 27.438 13.9578 27.8522H14.7078ZM15.414 27.8522H16.164C16.164 27.438 15.8282 27.1022 15.414 27.1022V27.8522ZM15.414 28.5041V29.2541C15.8282 29.2541 16.164 28.9183 16.164 28.5041H15.414ZM14.7078 28.5041H13.9578C13.9578 28.9183 14.2936 29.2541 14.7078 29.2541V28.5041ZM20.7533 29.0338V28.2838C20.339 28.2838 20.0033 28.6196 20.0033 29.0338H20.7533ZM21.4595 29.0338H22.2095C22.2095 28.6196 21.8737 28.2838 21.4595 28.2838V29.0338ZM21.4595 29.6857V30.4357C21.8737 30.4357 22.2095 30.0999 22.2095 29.6857H21.4595ZM20.7533 29.6857H20.0033C20.0033 30.0999 20.339 30.4357 20.7533 30.4357V29.6857ZM25.9834 26.048V25.298C25.5692 25.298 25.2334 25.6338 25.2334 26.048H25.9834ZM26.6897 26.048H27.4397C27.4397 25.6338 27.1039 25.298 26.6897 25.298V26.048ZM26.6897 26.6999V27.4499C27.1039 27.4499 27.4397 27.1141 27.4397 26.6999H26.6897ZM25.9834 26.6999H25.2334C25.2334 27.1141 25.5692 27.4499 25.9834 27.4499V26.6999ZM24.2174 7.80009V7.05009C23.8032 7.05009 23.4674 7.38588 23.4674 7.80009H24.2174ZM24.9236 7.80009H25.6736C25.6736 7.38588 25.3378 7.05009 24.9236 7.05009V7.80009ZM24.9236 8.45203V9.20203C25.3378 9.20203 25.6736 8.86624 25.6736 8.45203H24.9236ZM24.2174 8.45203H23.4674C23.4674 8.86624 23.8032 9.20203 24.2174 9.20203V8.45203ZM22.087 6.49573V5.74573C21.6728 5.74573 21.337 6.08151 21.337 6.49573H22.087ZM22.7932 6.49573H23.5432C23.5432 6.08151 23.2074 5.74573 22.7932 5.74573V6.49573ZM22.7932 7.14767V7.89767C23.2074 7.89767 23.5432 7.56188 23.5432 7.14767H22.7932ZM22.087 7.14767H21.337C21.337 7.56188 21.6728 7.89767 22.087 7.89767V7.14767ZM6.76033 21.1274V20.3774C6.34611 20.3774 6.01033 20.7132 6.01033 21.1274H6.76033ZM7.46655 21.1274H8.21655C8.21655 20.7132 7.88077 20.3774 7.46655 20.3774V21.1274ZM7.46655 21.7793V22.5293C7.88077 22.5293 8.21655 22.1935 8.21655 21.7793H7.46655ZM6.76033 21.7793H6.01033C6.01033 22.1935 6.34611 22.5293 6.76033 22.5293V21.7793ZM5.2931 23.5728V22.8228C4.87889 22.8228 4.5431 23.1586 4.5431 23.5728H5.2931ZM5.99933 23.5728H6.74933C6.74933 23.1586 6.41354 22.8228 5.99933 22.8228V23.5728ZM5.99933 24.2247V24.9747C6.41354 24.9747 6.74933 24.6389 6.74933 24.2247H5.99933ZM5.2931 24.2247H4.5431C4.5431 24.6389 4.87889 24.9747 5.2931 24.9747V24.2247ZM9.25564 18.6775C9.23669 19.0913 9.55676 19.4421 9.97054 19.4611C10.3843 19.48 10.7351 19.1599 10.7541 18.7462L9.25564 18.6775ZM9.87769 13.0048L9.1417 13.1491L9.14174 13.1493L9.87769 13.0048ZM11.8986 9.51186L11.9691 8.76518L11.969 8.76517L11.8986 9.51186ZM19.9957 10.8326C20.4099 10.8326 20.7457 10.4968 20.7457 10.0826C20.7457 9.66839 20.4099 9.33261 19.9957 9.33261V10.8326ZM19.3501 9.33261C18.9359 9.33261 18.6001 9.66839 18.6001 10.0826C18.6001 10.4968 18.9359 10.8326 19.3501 10.8326V9.33261ZM16.7141 23.0041C16.3998 23.2739 16.3637 23.7474 16.6335 24.0617C16.9032 24.376 17.3767 24.4121 17.691 24.1424L16.7141 23.0041ZM28.434 18.6C28.0624 18.417 27.6128 18.5699 27.4298 18.9414C27.2468 19.313 27.3996 19.7626 27.7712 19.9456L28.434 18.6ZM27.2635 9.07856C27.1879 9.48582 27.4567 9.87726 27.8639 9.95287C28.2712 10.0285 28.6626 9.75964 28.7383 9.35239L27.2635 9.07856ZM27.3895 7.23668L26.8592 7.76701L26.8593 7.76716L27.3895 7.23668ZM10.4315 9.35245C10.5071 9.75969 10.8986 10.0285 11.3058 9.95286C11.7131 9.87722 11.9819 9.48575 11.9062 9.07851L10.4315 9.35245ZM9.91535 17.9618C7.87119 17.9618 5.88547 18.6235 4.39597 19.6986C2.91402 20.7682 1.83949 22.3171 1.83949 24.1024H3.33949C3.33949 22.9533 4.03786 21.8069 5.27383 20.9149C6.50224 20.0282 8.17945 19.4618 9.91535 19.4618V17.9618ZM1.83949 24.1024C1.83949 24.9764 2.3608 25.5888 2.98502 25.9838C3.59334 26.3686 4.38252 26.6087 5.17738 26.7672C6.77855 27.0865 8.67529 27.1242 9.91535 27.1242V25.6242C8.67971 25.6242 6.91352 25.5839 5.47069 25.2962C4.74355 25.1512 4.16546 24.9556 3.78701 24.7162C3.42446 24.4868 3.33949 24.2864 3.33949 24.1024H1.83949ZM9.91535 27.1242C11.1556 27.1242 13.0524 27.0866 14.6535 26.7674C15.4483 26.609 16.2375 26.3689 16.8458 25.984C17.4701 25.5889 17.9912 24.9764 17.9912 24.1024H16.4912C16.4912 24.2866 16.4062 24.4871 16.0437 24.7164C15.6653 24.9558 15.0873 25.1514 14.3602 25.2964C12.9175 25.584 11.1513 25.6242 9.91535 25.6242V27.1242ZM17.9912 24.1024C17.9912 22.3171 16.9167 20.7682 15.4347 19.6986C13.9452 18.6235 11.9595 17.9618 9.91535 17.9618V19.4618C11.6513 19.4618 13.3285 20.0282 14.5569 20.9149C15.7928 21.8069 16.4912 22.9533 16.4912 24.1024H17.9912ZM1 26.798H1.70622V25.298H1V26.798ZM0.956225 26.048V26.6999H2.45622V26.048H0.956225ZM1.70622 25.9499H1V27.4499H1.70622V25.9499ZM1.75 26.6999V26.048H0.25V26.6999H1.75ZM11.9362 30.803H12.6424V29.303H11.9362V30.803ZM11.8924 30.053V30.705H13.3924V30.053H11.8924ZM12.6424 29.955H11.9362V31.455H12.6424V29.955ZM12.6862 30.705V30.053H11.1862V30.705H12.6862ZM14.7078 28.6022H15.414V27.1022H14.7078V28.6022ZM14.664 27.8522V28.5041H16.164V27.8522H14.664ZM15.414 27.7541H14.7078V29.2541H15.414V27.7541ZM15.4578 28.5041V27.8522H13.9578V28.5041H15.4578ZM20.7533 29.7838H21.4595V28.2838H20.7533V29.7838ZM20.7095 29.0338V29.6857H22.2095V29.0338H20.7095ZM21.4595 28.9357H20.7533V30.4357H21.4595V28.9357ZM21.5033 29.6857V29.0338H20.0033V29.6857H21.5033ZM25.9834 26.798H26.6897V25.298H25.9834V26.798ZM25.9397 26.048V26.6999H27.4397V26.048H25.9397ZM26.6897 25.9499H25.9834V27.4499H26.6897V25.9499ZM26.7334 26.6999V26.048H25.2334V26.6999H26.7334ZM24.2174 8.55009H24.9236V7.05009H24.2174V8.55009ZM24.1736 7.80009V8.45203H25.6736V7.80009H24.1736ZM24.9236 7.70203H24.2174V9.20203H24.9236V7.70203ZM24.9674 8.45203V7.80009H23.4674V8.45203H24.9674ZM22.087 7.24573H22.7932V5.74573H22.087V7.24573ZM22.0432 6.49573V7.14767H23.5432V6.49573H22.0432ZM22.7932 6.39767H22.087V7.89767H22.7932V6.39767ZM22.837 7.14767V6.49573H21.337V7.14767H22.837ZM6.76033 21.8774H7.46655V20.3774H6.76033V21.8774ZM6.71655 21.1274V21.7793H8.21655V21.1274H6.71655ZM7.46655 21.0293H6.76033V22.5293H7.46655V21.0293ZM7.51033 21.7793V21.1274H6.01033V21.7793H7.51033ZM5.2931 24.3228H5.99933V22.8228H5.2931V24.3228ZM5.24933 23.5728V24.2247H6.74933V23.5728H5.24933ZM5.99933 23.4747H5.2931V24.9747H5.99933V23.4747ZM6.0431 24.2247V23.5728H4.5431V24.2247H6.0431ZM10.7541 18.7462C10.7906 17.9493 10.8276 16.8557 10.8207 15.782C10.814 14.7235 10.7648 13.6303 10.6136 12.8603L9.14174 13.1493C9.26347 13.7693 9.31407 14.7393 9.32077 15.7916C9.32738 16.8288 9.29153 17.8937 9.25564 18.6775L10.7541 18.7462ZM10.6137 12.8605C10.5168 12.3664 10.3538 11.7634 10.273 11.3971C10.1748 10.9515 10.1512 10.6808 10.1823 10.5143C10.1948 10.4478 10.2122 10.4224 10.2208 10.4117C10.2292 10.4014 10.2587 10.3683 10.3513 10.3311C10.5638 10.2455 10.9999 10.1804 11.8281 10.2585L11.969 8.76517C11.0718 8.68049 10.3429 8.71737 9.79092 8.93964C9.5012 9.05632 9.24861 9.22869 9.05498 9.46788C8.86165 9.7067 8.75718 9.97494 8.70787 10.2388C8.61549 10.733 8.70898 11.2701 8.80822 11.7201C8.92499 12.2497 9.04002 12.6304 9.1417 13.1491L10.6137 12.8605ZM11.828 10.2585C15.1853 10.5759 14.2472 10.8326 19.9957 10.8326V9.33261C14.3321 9.33261 15.5137 9.10025 11.9691 8.76518L11.828 10.2585ZM19.9957 9.33261H19.3501V10.8326H19.9957V9.33261ZM19.3501 10.8326C25.0986 10.8326 24.1605 10.5759 27.5178 10.2585L27.3766 8.76518C23.8321 9.10025 25.0137 9.33261 19.3501 9.33261V10.8326ZM27.5178 10.2585C28.346 10.1802 28.782 10.2453 28.9946 10.3309C29.0871 10.3681 29.1166 10.4011 29.1249 10.4115C29.1336 10.4222 29.151 10.4476 29.1634 10.5141C29.1946 10.6806 29.171 10.9514 29.0727 11.3971C28.992 11.7633 28.829 12.3664 28.7321 12.8605L30.2041 13.1491C30.3058 12.6304 30.4208 12.2496 30.5376 11.7201C30.6368 11.27 30.7303 10.7329 30.6379 10.2386C30.5886 9.97476 30.4841 9.70651 30.2908 9.46767C30.0972 9.22847 29.8446 9.05609 29.5548 8.93942C29.0029 8.71716 28.2739 8.68037 27.3766 8.76518L27.5178 10.2585ZM28.7321 12.8605C28.5154 13.966 28.5048 15.774 28.539 17.2373C28.5565 17.9835 28.5865 18.6648 28.6121 19.1593C28.6249 19.4068 28.6366 19.6079 28.6452 19.7475C28.6494 19.8173 28.6529 19.8717 28.6554 19.909C28.6566 19.9276 28.6575 19.9419 28.6582 19.9516C28.6585 19.9565 28.6588 19.9602 28.6589 19.9628C28.659 19.9641 28.6591 19.9651 28.6591 19.9658C28.6592 19.9661 28.6592 19.9664 28.6592 19.9666C28.6592 19.9667 28.6592 19.9668 28.6592 19.9669C28.6592 19.9669 28.6592 19.967 29.4074 19.9155C30.1557 19.8639 30.1557 19.8639 30.1557 19.8639C30.1557 19.8639 30.1557 19.8639 30.1557 19.8639C30.1557 19.8638 30.1556 19.8636 30.1556 19.8634C30.1556 19.8629 30.1555 19.8621 30.1555 19.861C30.1553 19.8589 30.1551 19.8556 30.1548 19.8512C30.1542 19.8423 30.1533 19.8289 30.1522 19.8113C30.1499 19.7759 30.1465 19.7235 30.1424 19.6558C30.1341 19.5203 30.1226 19.324 30.1101 19.0818C30.085 18.5971 30.0557 17.9305 30.0386 17.2023C30.0039 15.7168 30.0237 14.0694 30.2041 13.1491L28.7321 12.8605ZM29.4074 19.9155C28.7472 20.2713 28.7472 20.2712 28.7471 20.2711C28.7471 20.2711 28.7471 20.2711 28.7471 20.2711C28.7471 20.2711 28.7471 20.2711 28.7472 20.2712C28.7473 20.2715 28.7476 20.272 28.748 20.2727C28.7488 20.2741 28.7501 20.2766 28.7519 20.28C28.7555 20.2868 28.7612 20.2975 28.7687 20.3118C28.7836 20.3403 28.8059 20.383 28.8339 20.438C28.89 20.5481 28.9689 20.7067 29.0586 20.8975C29.2394 21.2822 29.4579 21.7848 29.6233 22.2805C29.7966 22.7999 29.8794 23.2197 29.8628 23.4741C29.8548 23.5951 29.8292 23.5914 29.8653 23.5474C29.9219 23.4784 29.9846 23.4809 29.9424 23.4829L30.0139 24.9812C30.3998 24.9628 30.7656 24.815 31.025 24.4988C31.2639 24.2076 31.3407 23.8596 31.3596 23.5721C31.3964 23.0095 31.2295 22.3553 31.0462 21.8057C30.8549 21.2325 30.6097 20.6713 30.4161 20.2594C30.3185 20.0519 30.2325 19.879 30.1705 19.7572C30.1394 19.6962 30.1143 19.6479 30.0967 19.6143C30.0878 19.5975 30.0809 19.5844 30.076 19.5752C30.0735 19.5706 30.0716 19.567 30.0702 19.5644C30.0695 19.5631 30.0689 19.562 30.0685 19.5612C30.0683 19.5608 30.0681 19.5605 30.068 19.5602C30.0679 19.5601 30.0678 19.5599 30.0678 19.5599C30.0677 19.5597 30.0677 19.5596 29.4074 19.9155ZM29.9424 23.4829C29.5736 23.5005 28.8017 23.4559 27.7749 23.3681C26.7673 23.282 25.5663 23.1593 24.371 23.0333C23.1791 22.9078 21.9904 22.7787 21.02 22.6814C20.0679 22.586 19.2715 22.5151 18.8923 22.5151V24.0151C19.1786 24.0151 19.8865 24.0753 20.8704 24.174C21.8359 24.2707 23.0145 24.3987 24.2138 24.5251C25.4096 24.6511 26.6235 24.7752 27.6471 24.8627C28.6515 24.9486 29.5269 25.0044 30.0139 24.9812L29.9424 23.4829ZM18.8923 22.5151C18.1708 22.5151 17.6732 22.5985 17.3324 22.701C17.1614 22.7524 17.0291 22.8089 16.928 22.8626C16.8774 22.8894 16.8349 22.9154 16.7995 22.9394C16.7817 22.9514 16.7658 22.9629 16.7516 22.9738C16.7445 22.9792 16.7379 22.9845 16.7316 22.9895C16.7285 22.9921 16.7255 22.9946 16.7225 22.997C16.7211 22.9982 16.7197 22.9994 16.7182 23.0006C16.7175 23.0012 16.7168 23.0018 16.7162 23.0024C16.7158 23.0027 16.7153 23.0031 16.7151 23.0033C16.7146 23.0037 16.7141 23.0041 17.2026 23.5733C17.691 24.1424 17.6905 24.1428 17.69 24.1432C17.6899 24.1434 17.6894 24.1438 17.689 24.1441C17.6884 24.1447 17.6877 24.1452 17.687 24.1458C17.6857 24.1469 17.6844 24.148 17.6831 24.1491C17.6806 24.1512 17.6781 24.1533 17.6757 24.1552C17.6709 24.1591 17.6664 24.1626 17.6622 24.1658C17.6539 24.1721 17.647 24.177 17.6417 24.1806C17.6311 24.1878 17.627 24.1897 17.6309 24.1876C17.6387 24.1835 17.6793 24.163 17.7644 24.1374C17.9358 24.0859 18.2831 24.0151 18.8923 24.0151V22.5151ZM29.7388 19.2426L28.434 18.6L27.7712 19.9456L29.0761 20.5883L29.7388 19.2426ZM28.0009 9.21548C28.7383 9.35239 28.7383 9.35209 28.7384 9.35179C28.7384 9.35168 28.7384 9.35137 28.7385 9.35115C28.7386 9.35072 28.7387 9.35027 28.7387 9.3498C28.7389 9.34887 28.7391 9.34785 28.7393 9.34677C28.7397 9.3446 28.7401 9.34213 28.7406 9.33938C28.7415 9.33387 28.7426 9.32719 28.7439 9.3194C28.7463 9.30383 28.7493 9.28374 28.7524 9.25953C28.7586 9.21118 28.7654 9.14587 28.7701 9.06674C28.7795 8.90946 28.7806 8.69197 28.7488 8.44115C28.6856 7.94226 28.4856 7.27178 27.9197 6.70619L26.8593 7.76716C27.119 8.02665 27.2247 8.34557 27.2607 8.6298C27.2786 8.77056 27.2778 8.89307 27.2728 8.97789C27.2703 9.01981 27.2668 9.05108 27.2645 9.06905C27.2634 9.078 27.2625 9.0835 27.2623 9.08523C27.2621 9.08609 27.2621 9.086 27.2623 9.0849C27.2624 9.08436 27.2626 9.08356 27.2627 9.0825C27.2628 9.08198 27.2629 9.08138 27.2631 9.08073C27.2631 9.0804 27.2632 9.08006 27.2633 9.07969C27.2633 9.07951 27.2633 9.07923 27.2634 9.07914C27.2634 9.07885 27.2635 9.07856 28.0009 9.21548ZM27.9198 6.70635C27.5495 6.33599 26.16 4.79856 24.6026 3.40343C23.8178 2.7005 22.961 2.00543 22.1271 1.48193C21.3194 0.974799 20.423 0.556641 19.5849 0.556641V2.05664C19.9795 2.05664 20.5718 2.27654 21.3295 2.7523C22.0612 3.21169 22.8466 3.84434 23.6017 4.52072C25.1239 5.88422 26.404 7.3118 26.8592 7.76701L27.9198 6.70635ZM19.5849 0.556641C18.7466 0.556641 17.8501 0.974819 17.0423 1.482C16.2084 2.00554 15.3515 2.70066 14.5668 3.40363C13.0094 4.79879 11.6199 6.33629 11.2499 6.70635L12.3105 7.76701C12.7655 7.31199 14.0455 5.88447 15.5676 4.52089C16.3227 3.84448 17.1081 3.21179 17.8399 2.75237C18.5977 2.27658 19.1901 2.05664 19.5849 2.05664V0.556641ZM11.2499 6.70635C10.6841 7.2721 10.4841 7.94244 10.4209 8.44132C10.3891 8.69211 10.3903 8.90956 10.3996 9.06682C10.4043 9.14594 10.4111 9.21124 10.4173 9.25958C10.4204 9.2838 10.4234 9.30388 10.4258 9.31945C10.4271 9.32725 10.4282 9.33392 10.4291 9.33943C10.4296 9.34219 10.43 9.34465 10.4304 9.34682C10.4306 9.34791 10.4308 9.34892 10.431 9.34986C10.4311 9.35033 10.4312 9.35078 10.4312 9.35121C10.4313 9.35142 10.4313 9.35173 10.4314 9.35184C10.4314 9.35215 10.4315 9.35245 11.1688 9.21548C11.9062 9.07851 11.9063 9.0788 11.9063 9.07908C11.9064 9.07917 11.9064 9.07946 11.9064 9.07964C11.9065 9.08 11.9066 9.08034 11.9066 9.08067C11.9068 9.08133 11.9069 9.08192 11.907 9.08245C11.9071 9.08351 11.9073 9.08431 11.9074 9.08485C11.9076 9.08595 11.9076 9.08605 11.9074 9.08519C11.9072 9.08347 11.9063 9.07797 11.9052 9.06904C11.9029 9.05109 11.8994 9.01984 11.897 8.97794C11.8919 8.89317 11.8911 8.77072 11.909 8.63C11.945 8.34587 12.0507 8.02681 12.3105 7.76701L11.2499 6.70635Z" fill="#FFD17E"/>
    </symbol>
    <symbol viewBox="0 0 15 29" fill="none" xmlns="http://www.w3.org/2000/svg" id="lactose">
        <path d="M13.7251 9.05331L11.2851 6.61331C10.9099 6.23859 10.6989 5.73023 10.6984 5.19997V4.18664C11.1393 4.02665 11.51 3.71679 11.7456 3.31122C11.9812 2.90565 12.0668 2.43017 11.9874 1.9679C11.9079 1.50563 11.6686 1.08599 11.3111 0.782317C10.9536 0.478649 10.5008 0.31028 10.0318 0.306641H4.69842C4.2294 0.31028 3.77657 0.478649 3.4191 0.782317C3.06162 1.08599 2.82225 1.50563 2.74283 1.9679C2.6634 2.43017 2.74897 2.90565 2.98458 3.31122C3.22019 3.71679 3.59084 4.02665 4.03176 4.18664V5.19997C4.03129 5.73023 3.82027 6.23859 3.44509 6.61331L1.00509 9.05331C0.695153 9.363 0.449578 9.73097 0.282525 10.136C0.115473 10.5411 0.0302459 10.9752 0.0317581 11.4133V24.9733C0.0317581 25.8574 0.382948 26.7052 1.00807 27.3303C1.63319 27.9555 2.48104 28.3066 3.36509 28.3066H11.3651C12.2491 28.3066 13.097 27.9555 13.7221 27.3303C14.3472 26.7052 14.6984 25.8574 14.6984 24.9733V11.4133C14.6999 10.9752 14.6147 10.5411 14.4477 10.136C14.2806 9.73097 14.035 9.363 13.7251 9.05331ZM4.69842 1.63997H10.0318C10.2086 1.63997 10.3781 1.71021 10.5032 1.83524C10.6282 1.96026 10.6984 2.12983 10.6984 2.30664C10.6984 2.48345 10.6282 2.65302 10.5032 2.77805C10.3781 2.90307 10.2086 2.97331 10.0318 2.97331H4.69842C4.52161 2.97331 4.35204 2.90307 4.22702 2.77805C4.102 2.65302 4.03176 2.48345 4.03176 2.30664C4.03176 2.12983 4.102 1.96026 4.22702 1.83524C4.35204 1.71021 4.52161 1.63997 4.69842 1.63997ZM1.95176 9.99998L4.39176 7.55997C4.7017 7.25029 4.94727 6.88231 5.11432 6.47727C5.28138 6.07222 5.3666 5.63811 5.36509 5.19997V4.30664H9.36509V5.19997C9.36358 5.63811 9.44881 6.07222 9.61586 6.47727C9.78291 6.88231 10.0285 7.25029 10.3384 7.55997L12.7784 9.99998C13.1536 10.3747 13.3646 10.8831 13.3651 11.4133V11.8933C11.5307 11.3855 9.57768 11.5219 7.83176 12.28C5.80509 12.9066 3.71176 13.5333 1.36509 12.5333V11.4133C1.36556 10.8831 1.57658 10.3747 1.95176 9.99998ZM11.3651 26.9733H3.36509C2.83466 26.9733 2.32595 26.7626 1.95088 26.3875C1.5758 26.0124 1.36509 25.5037 1.36509 24.9733V13.9733C2.18146 14.2688 3.04358 14.4177 3.91176 14.4133C5.38254 14.3511 6.83504 14.0633 8.21843 13.56C10.1251 12.9733 11.7651 12.48 13.3651 13.36V24.9733C13.3651 25.5037 13.1544 26.0124 12.7793 26.3875C12.4042 26.7626 11.8955 26.9733 11.3651 26.9733Z" fill="#FFD17E"/>
    </symbol>
    <symbol viewBox="0 0 24 29" fill="none" xmlns="http://www.w3.org/2000/svg" id="fat">
        <path d="M11.9552 27.7917C13.7634 27.7917 15.7764 26.6379 17.0747 24.8533C18.3484 23.1082 18.7559 21.0165 18.1907 19.1157C17.3716 16.3952 12.4569 11.0352 12.2521 10.8153C12.2138 10.7741 12.1677 10.7414 12.1164 10.719C12.0652 10.6966 12.01 10.685 11.9542 10.685C11.8984 10.685 11.8432 10.6966 11.7919 10.719C11.7407 10.7414 11.6945 10.7741 11.6562 10.8153C11.4514 11.0415 6.52444 16.3994 5.71761 19.1157C5.14627 21.0165 5.55583 23.1082 6.83161 24.8533C8.13606 26.6379 10.147 27.7917 11.9552 27.7917ZM6.49782 19.3543C7.14492 17.1817 10.8699 12.9215 11.9572 11.7034C13.0446 12.9174 16.7696 17.1817 17.4167 19.3543C18.0884 21.61 17.0849 23.4568 16.4276 24.3574C15.2706 25.9407 13.5156 26.9617 11.9552 26.9617C10.3948 26.9617 8.64186 25.9386 7.48486 24.3574C6.82956 23.4589 5.82614 21.61 6.49782 19.3543Z" fill="#FFD17E"/>
        <path d="M22.6631 11.7366C23.6133 10.4355 23.9164 8.87505 23.4925 7.45568C22.8945 5.44698 19.2884 1.52296 19.1368 1.35488C19.0985 1.31374 19.0524 1.28097 19.0011 1.25857C18.9499 1.23616 18.8947 1.22461 18.8389 1.22461C18.7831 1.22461 18.7279 1.23616 18.6766 1.25857C18.6254 1.28097 18.5792 1.31374 18.5409 1.35488C18.3873 1.52089 14.7832 5.44491 14.1853 7.45361C13.7634 8.87505 14.0644 10.4355 15.0146 11.7345C15.9648 13.0336 17.4863 13.9238 18.8379 13.9238C20.1894 13.9238 21.6925 13.0585 22.6631 11.7366ZM15.6699 11.2427C15.203 10.6036 14.4904 9.29215 14.9655 7.69432C15.416 6.18157 17.9594 3.23907 18.8379 2.2534C19.7164 3.23907 22.2597 6.18157 22.7102 7.69432C23.1853 9.29215 22.4727 10.5995 22.0058 11.2427C21.1867 12.3674 19.9396 13.0958 18.8379 13.0958C17.7361 13.0958 16.4911 12.3674 15.6699 11.2427Z" fill="#FFD17E"/>
        <path d="M5.08075 1.35488C4.92921 1.52296 1.32304 5.44698 0.72508 7.45568C0.303234 8.87713 0.60426 10.4376 1.55444 11.7366C2.50462 13.0356 4.02613 13.9238 5.37973 13.9238C6.73332 13.9238 8.23231 13.0585 9.20297 11.7366C10.1736 10.4148 10.4542 8.87505 10.0323 7.45568C9.43437 5.44698 5.83024 1.52296 5.67666 1.35488C5.63837 1.31374 5.59219 1.28097 5.54095 1.25857C5.48972 1.23616 5.4345 1.22461 5.3787 1.22461C5.3229 1.22461 5.26769 1.23616 5.21645 1.25857C5.16521 1.28097 5.11903 1.31374 5.08075 1.35488ZM8.54767 11.2427C7.72855 12.3674 6.48144 13.0958 5.37973 13.0958C4.27801 13.0958 3.03295 12.3695 2.21178 11.2427C1.74488 10.6036 1.03225 9.29215 1.50734 7.69432C1.95785 6.18157 4.50122 3.23907 5.37973 2.2534C6.25618 3.237 8.8016 6.18157 9.24187 7.69432C9.7272 9.29215 9.01457 10.6036 8.54767 11.2427Z" fill="#FFD17E"/>
        <path d="M11.9552 27.7917C13.7634 27.7917 15.7764 26.6379 17.0747 24.8533C18.3484 23.1082 18.7559 21.0165 18.1907 19.1157C17.3716 16.3952 12.4569 11.0352 12.2521 10.8153C12.2138 10.7741 12.1677 10.7414 12.1164 10.719C12.0652 10.6966 12.01 10.685 11.9542 10.685C11.8984 10.685 11.8432 10.6966 11.7919 10.719C11.7407 10.7414 11.6945 10.7741 11.6562 10.8153C11.4514 11.0415 6.52444 16.3994 5.71761 19.1157C5.14627 21.0165 5.55583 23.1082 6.83161 24.8533C8.13606 26.6379 10.147 27.7917 11.9552 27.7917ZM6.49782 19.3543C7.14492 17.1817 10.8699 12.9215 11.9572 11.7034C13.0446 12.9174 16.7696 17.1817 17.4167 19.3543C18.0884 21.61 17.0849 23.4568 16.4276 24.3574C15.2706 25.9407 13.5156 26.9617 11.9552 26.9617C10.3948 26.9617 8.64186 25.9386 7.48486 24.3574C6.82956 23.4589 5.82614 21.61 6.49782 19.3543Z" stroke="#FFD17E" stroke-width="0.5"/>
        <path d="M22.6631 11.7366C23.6133 10.4355 23.9164 8.87505 23.4925 7.45568C22.8945 5.44698 19.2884 1.52296 19.1368 1.35488C19.0985 1.31374 19.0524 1.28097 19.0011 1.25857C18.9499 1.23616 18.8947 1.22461 18.8389 1.22461C18.7831 1.22461 18.7279 1.23616 18.6766 1.25857C18.6254 1.28097 18.5792 1.31374 18.5409 1.35488C18.3873 1.52089 14.7832 5.44491 14.1853 7.45361C13.7634 8.87505 14.0644 10.4355 15.0146 11.7345C15.9648 13.0336 17.4863 13.9238 18.8379 13.9238C20.1894 13.9238 21.6925 13.0585 22.6631 11.7366ZM15.6699 11.2427C15.203 10.6036 14.4904 9.29215 14.9655 7.69432C15.416 6.18157 17.9594 3.23907 18.8379 2.2534C19.7164 3.23907 22.2597 6.18157 22.7102 7.69432C23.1853 9.29215 22.4727 10.5995 22.0058 11.2427C21.1867 12.3674 19.9396 13.0958 18.8379 13.0958C17.7361 13.0958 16.4911 12.3674 15.6699 11.2427Z" stroke="#FFD17E" stroke-width="0.5"/>
        <path d="M5.08075 1.35488C4.92921 1.52296 1.32304 5.44698 0.72508 7.45568C0.303234 8.87713 0.60426 10.4376 1.55444 11.7366C2.50462 13.0356 4.02613 13.9238 5.37973 13.9238C6.73332 13.9238 8.23231 13.0585 9.20297 11.7366C10.1736 10.4148 10.4542 8.87505 10.0323 7.45568C9.43437 5.44698 5.83024 1.52296 5.67666 1.35488C5.63837 1.31374 5.59219 1.28097 5.54095 1.25857C5.48972 1.23616 5.4345 1.22461 5.3787 1.22461C5.3229 1.22461 5.26769 1.23616 5.21645 1.25857C5.16521 1.28097 5.11903 1.31374 5.08075 1.35488ZM8.54767 11.2427C7.72855 12.3674 6.48144 13.0958 5.37973 13.0958C4.27801 13.0958 3.03295 12.3695 2.21178 11.2427C1.74488 10.6036 1.03225 9.29215 1.50734 7.69432C1.95785 6.18157 4.50122 3.23907 5.37973 2.2534C6.25618 3.237 8.8016 6.18157 9.24187 7.69432C9.7272 9.29215 9.01457 10.6036 8.54767 11.2427Z" stroke="#FFD17E" stroke-width="0.5"/>
    </symbol>
    <symbol viewBox="0 0 18 30" fill="none" xmlns="http://www.w3.org/2000/svg" id="preservatives">
        <path d="M3.42348 14.3195C3.1112 14.3195 2.8273 14.575 2.8273 14.9157V18.1237C2.8273 18.436 3.08281 18.7199 3.42348 18.7199C3.73577 18.7199 4.01967 18.4644 4.01967 18.1237V14.9157C3.99128 14.575 3.73577 14.3195 3.42348 14.3195Z" fill="#FFD17E"/>
        <path d="M8.6756 17.6127L5.8934 19.2025C5.6095 19.3729 5.52433 19.7136 5.66628 19.9975C5.77984 20.1962 5.97857 20.2814 6.1773 20.2814C6.26247 20.2814 6.37603 20.253 6.4612 20.1962L9.2434 18.6064C9.5273 18.436 9.61247 18.0953 9.47052 17.8114C9.30018 17.5559 8.9595 17.4424 8.6756 17.6127Z" fill="#FFD17E"/>
        <path d="M5.69467 13.0136C5.52433 13.2975 5.63789 13.6381 5.92179 13.8085L8.70399 15.3983C8.78916 15.4551 8.90272 15.4835 8.98789 15.4835C9.18662 15.4835 9.38535 15.3699 9.49891 15.1996C9.66925 14.9157 9.55569 14.575 9.27179 14.4047L6.48959 12.8148C6.20569 12.6445 5.83662 12.7297 5.69467 13.0136Z" fill="#FFD17E"/>
        <path d="M17.0506 4.01399L11.8269 0.89111C11.6565 0.77755 11.4294 0.77755 11.2307 0.89111L6.12052 3.73009L1.20908 0.89111C0.925179 0.720771 0.556111 0.80594 0.414162 1.08984C0.243823 1.37374 0.328993 1.7428 0.612891 1.88475L5.6095 4.78052V6.56907L1.06713 3.92882C0.78323 3.75848 0.442552 3.87204 0.272213 4.15594C0.101874 4.43984 0.187044 4.78052 0.470942 4.95085L5.6095 7.9034V10.061L0.612891 12.9568C0.442552 13.0703 0.328993 13.2407 0.328993 13.4678V19.5716C0.328993 19.7703 0.442552 19.9691 0.612891 20.0826L5.6095 22.95V28.5996C5.6095 28.9119 5.86501 29.1958 6.20569 29.1958C6.51798 29.1958 6.80187 28.9403 6.80187 28.5996V22.95L11.7985 20.0542C11.9688 19.9407 12.0824 19.7703 12.0824 19.5432V13.4678C12.0824 13.2691 11.9688 13.0703 11.7985 12.9568L6.77348 10.0894V4.69535L11.5146 2.05509L16.4544 5.00763C16.5396 5.06441 16.6531 5.0928 16.7667 5.0928C16.9654 5.0928 17.1642 4.97924 17.2777 4.80891C17.4197 4.5534 17.3345 4.18433 17.0506 4.01399ZM10.89 19.2309L6.20569 21.928H6.14891L1.49298 19.2309V13.8085L6.14891 11.1398C6.1773 11.1398 6.1773 11.1398 6.20569 11.1398C6.23408 11.1398 6.23408 11.1398 6.26247 11.1398L10.9184 13.8085V19.2309H10.89Z" fill="#FFD17E"/>
    </symbol>
    <symbol viewBox="0 0 60 44" fill="none" xmlns="http://www.w3.org/2000/svg" id="diamond">
            <path d="M59.3962 11.8625C59.4747 11.7063 59.4747 11.5501 59.4747 11.472C59.4747 11.3939 59.4747 11.3159 59.4747 11.2378C59.4747 11.0816 59.4747 10.9254 59.3962 10.7692C59.3178 10.6131 59.1608 10.4569 59.0038 10.3007L51.469 0.617935C51.2335 0.305587 50.8411 0.149414 50.4487 0.149414H9.63519C9.24275 0.149414 8.9288 0.305587 8.69334 0.617935L1.08006 10.2226C0.923081 10.3788 0.766106 10.4569 0.687618 10.6912C0.609131 10.8473 0.609131 11.0035 0.609131 11.1597C0.609131 11.3939 0.609131 11.6282 0.687618 11.8625C0.766106 12.0967 0.923081 12.2529 1.15854 12.4091L29.1001 43.4096C29.1001 43.4096 29.1786 43.4096 29.1786 43.4877C29.2571 43.5658 29.3355 43.6439 29.4925 43.722C29.4925 43.722 29.571 43.722 29.571 43.8001C29.728 43.8782 29.885 43.8781 30.0419 43.8781C30.1989 43.8781 30.3559 43.8001 30.5129 43.8001C30.5913 43.8001 30.5913 43.8001 30.5913 43.722C30.6698 43.6439 30.8268 43.5658 30.9053 43.4877C30.9053 43.4877 30.9838 43.4877 30.9838 43.4096L58.9253 12.4091C59.0823 12.1748 59.2393 12.0186 59.3962 11.8625ZM21.2513 9.98838L30.0419 2.88246L38.911 9.98838H21.2513ZM4.45502 9.98838L9.63519 3.35098L14.8939 9.98838H4.45502ZM40.6377 12.4872L30.0419 39.1148L19.4461 12.4872H40.6377ZM45.19 9.98838L50.4487 3.35098L55.6288 9.98838H45.19ZM42.3645 9.59794L33.7308 2.57011H47.9371L42.3645 9.59794ZM17.7194 9.59794L12.1468 2.57011H26.353L17.7194 9.59794ZM16.7776 12.4872L26.2745 36.538L4.69048 12.4872H16.7776ZM43.3063 12.4872H55.3934L33.7308 36.538L43.3063 12.4872Z" fill="#FFD17E"/>
    </symbol>
    <symbol viewBox="0 0 59 53" fill="none" xmlns="http://www.w3.org/2000/svg" id="cup">
        <path d="M58.6579 6.20611C58.6279 5.74611 58.4238 5.31482 58.0871 4.99999C57.7504 4.68517 57.3064 4.51046 56.8454 4.51144H45.7169V2.5449C45.7169 2.0642 45.5259 1.60319 45.186 1.26328C44.8461 0.923379 44.3851 0.732422 43.9044 0.732422H15.4125C14.9318 0.732422 14.4708 0.923379 14.1309 1.26328C13.791 1.60319 13.6 2.0642 13.6 2.5449V4.51144H2.47148C2.01052 4.51046 1.56651 4.68517 1.2298 4.99999C0.893086 5.31482 0.688982 5.74611 0.659021 6.20611C0.659021 6.20611 0.659021 6.50517 0.659021 7.02172C0.630552 10.9709 1.66243 14.8553 3.64698 18.2698C5.63154 21.6842 8.49604 24.5034 11.9416 26.4334L17.6962 29.6777C19.5581 31.748 21.9341 33.2893 24.5836 34.1455V40.2535H19.0374C18.5567 40.2535 18.0957 40.4445 17.7558 40.7844C17.4159 41.1243 17.2249 41.5853 17.2249 42.066V50.9199C17.2249 51.4006 17.4159 51.8616 17.7558 52.2016C18.0957 52.5415 18.5567 52.7324 19.0374 52.7324H40.2795C40.7602 52.7324 41.2212 52.5415 41.5611 52.2016C41.901 51.8616 42.092 51.4006 42.092 50.9199V42.066C42.092 41.5853 41.901 41.1243 41.5611 40.7844C41.2212 40.4445 40.7602 40.2535 40.2795 40.2535H34.7333V34.1455C37.3828 33.2893 39.7588 31.748 41.6207 29.6777L47.3753 26.4334C50.8209 24.5034 53.6854 21.6842 55.6699 18.2698C57.6545 14.8553 58.6863 10.9709 58.6579 7.02172C58.6579 6.50517 58.6579 6.20611 58.6579 6.20611ZM17.2521 4.39363H42.092V19.0928C42.0957 21.9138 41.1149 24.6477 39.3189 26.823C39.0438 26.9993 38.8215 27.2467 38.6755 27.539C37.5414 28.7186 36.1804 29.6567 34.6744 30.2968C33.1684 30.9369 31.5486 31.2657 29.9122 31.2636H29.4047C27.767 31.2634 26.1464 30.9317 24.6403 30.2884C23.1343 29.6452 21.774 28.7038 20.6414 27.5208C20.4954 27.2286 20.2731 26.9812 19.998 26.8049C18.202 24.6296 17.2212 21.8957 17.2249 19.0747L17.2521 4.39363ZM13.7269 23.2796C11.0006 21.7602 8.70428 19.574 7.05281 16.9256C5.40133 14.2772 4.44867 11.2532 4.28395 8.13639H13.6V19.0928C13.5982 20.6268 13.818 22.1529 14.2525 23.624L13.7269 23.2796ZM38.467 49.1075H20.8499V43.8785H38.467V49.1075ZM31.1084 40.2535H28.2085V34.8886C28.5982 34.8886 28.9969 34.952 29.4047 34.952H29.9122C30.32 34.952 30.7187 34.952 31.1084 34.8886V40.2535ZM45.6081 23.2796L45.0825 23.5787C45.517 22.1076 45.7368 20.5814 45.735 19.0475V8.13639H55.0329C54.8682 11.2532 53.9156 14.2772 52.2641 16.9256C50.6126 19.574 48.3163 21.7602 45.59 23.2796H45.6081Z" fill="#FFD17E"/>
    </symbol>
    <symbol viewBox="0 0 46 50" fill="none" xmlns="http://www.w3.org/2000/svg" id="tile">
        <path d="M33.937 4.5554C36.5263 4.5554 36.5263 0.54541 33.937 0.54541C31.3484 0.54541 31.3484 4.5554 33.937 4.5554Z" fill="#FFD17E"/>
        <path d="M31.9957 14.3456C34.5835 14.3456 34.5835 10.3402 31.9957 10.3402C29.4064 10.3402 29.4064 14.3456 31.9957 14.3456Z" fill="#FFD17E"/>
        <path d="M41.5195 20.1479C42.9737 20.1479 42.9737 17.8975 41.5195 17.8975C40.0653 17.8975 40.0653 20.1479 41.5195 20.1479Z" fill="#FFD17E"/>
        <path d="M43.2199 24.6547C42.8446 24.9254 42.4244 25.1439 41.9693 25.3031C40.3457 25.8826 38.4538 25.5625 37.1105 24.4749C36.5673 24.0396 36.1145 23.4836 35.7855 22.8457C35.7042 22.6933 35.6328 22.5408 35.572 22.3823L35.0272 20.9397L33.589 21.5086C32.8262 21.8104 32.0071 21.9932 31.1554 22.0463L30.2148 22.0478C27.5647 21.9052 25.1578 20.4824 23.7506 18.2168C22.9643 16.9426 22.5487 15.4735 22.5487 13.9679C22.5487 13.7578 22.5532 13.553 22.5738 13.3263C22.6733 12.0551 23.0843 10.8006 23.7651 9.69854L24.6449 8.2749L23.1405 7.53844C22.1597 7.05985 21.4432 6.13983 21.2252 5.07798L20.9775 3.86444H0.354858V49.0544H45.6299V22.914L43.2199 24.6547ZM33.5009 24.9421H32.4706C32.776 24.8921 33.0799 24.8337 33.377 24.7586C33.4158 24.8208 33.4606 24.8799 33.5009 24.9421ZM28.8259 24.9406L24.3136 24.9414V23.1135C25.6546 24.0411 27.1917 24.6706 28.8259 24.9406ZM18.6252 6.89905C19.0347 7.87064 19.6775 8.73453 20.4874 9.41032C19.9639 10.5761 19.6433 11.8222 19.5468 13.0722C19.5187 13.3687 19.5096 13.663 19.5096 13.9687C19.5096 16.037 20.0809 18.056 21.1659 19.8126C21.2001 19.868 21.2388 19.9211 21.2745 19.9757V24.9429H3.39396V6.89905H18.6252ZM3.39396 27.976H21.2738V46.0213H3.39396V27.976ZM24.3136 46.0205V27.976H36.9153V27.8834C38.6863 28.6813 40.737 28.8459 42.5916 28.2915V46.0205H24.3136Z" fill="#FFD17E"/>
    </symbol>
    <symbol viewBox="0 0 16 24" fill="none" xmlns="http://www.w3.org/2000/svg" id="circle">
            <rect x="0.5" y="0.5" width="15" height="23" rx="7.5" stroke="#FFD17E"/>
    </symbol>
    <symbol viewBox="0 0 2 3" fill="none" xmlns="http://www.w3.org/2000/svg" id="dot">
            <rect x="0.5" y="0.5" width="1" height="2" rx="0.5" stroke="#FFD17E"/>
    </symbol>
    <symbol viewBox="0 0 8 131" fill="none" xmlns="http://www.w3.org/2000/svg" id="arrow">
            <path d="M3.64645 130.354C3.84171 130.549 4.1583 130.549 4.35356 130.354L7.53554 127.172C7.7308 126.976 7.7308 126.66 7.53554 126.464C7.34028 126.269 7.02369 126.269 6.82843 126.464L4.00001 129.293L1.17158 126.464C0.976316 126.269 0.659734 126.269 0.464472 126.464C0.269209 126.66 0.269209 126.976 0.464472 127.172L3.64645 130.354ZM3.5 2.18557e-08L3.50001 130L4.50001 130L4.5 -2.18557e-08L3.5 2.18557e-08Z" fill="#FFD17E"/>
    </symbol>
</svg>