<svg width="46" height="50" viewBox="0 0 46 50" fill="none" xmlns="http://www.w3.org/2000/svg">
<path d="M33.937 4.5554C36.5263 4.5554 36.5263 0.54541 33.937 0.54541C31.3484 0.54541 31.3484 4.5554 33.937 4.5554Z" fill="#FFD17E"/>
<path d="M31.9957 14.3456C34.5835 14.3456 34.5835 10.3402 31.9957 10.3402C29.4064 10.3402 29.4064 14.3456 31.9957 14.3456Z" fill="#FFD17E"/>
<path d="M41.5195 20.1479C42.9737 20.1479 42.9737 17.8975 41.5195 17.8975C40.0653 17.8975 40.0653 20.1479 41.5195 20.1479Z" fill="#FFD17E"/>
<path d="M43.2199 24.6547C42.8446 24.9254 42.4244 25.1439 41.9693 25.3031C40.3457 25.8826 38.4538 25.5625 37.1105 24.4749C36.5673 24.0396 36.1145 23.4836 35.7855 22.8457C35.7042 22.6933 35.6328 22.5408 35.572 22.3823L35.0272 20.9397L33.589 21.5086C32.8262 21.8104 32.0071 21.9932 31.1554 22.0463L30.2148 22.0478C27.5647 21.9052 25.1578 20.4824 23.7506 18.2168C22.9643 16.9426 22.5487 15.4735 22.5487 13.9679C22.5487 13.7578 22.5532 13.553 22.5738 13.3263C22.6733 12.0551 23.0843 10.8006 23.7651 9.69854L24.6449 8.2749L23.1405 7.53844C22.1597 7.05985 21.4432 6.13983 21.2252 5.07798L20.9775 3.86444H0.354858V49.0544H45.6299V22.914L43.2199 24.6547ZM33.5009 24.9421H32.4706C32.776 24.8921 33.0799 24.8337 33.377 24.7586C33.4158 24.8208 33.4606 24.8799 33.5009 24.9421ZM28.8259 24.9406L24.3136 24.9414V23.1135C25.6546 24.0411 27.1917 24.6706 28.8259 24.9406ZM18.6252 6.89905C19.0347 7.87064 19.6775 8.73453 20.4874 9.41032C19.9639 10.5761 19.6433 11.8222 19.5468 13.0722C19.5187 13.3687 19.5096 13.663 19.5096 13.9687C19.5096 16.037 20.0809 18.056 21.1659 19.8126C21.2001 19.868 21.2388 19.9211 21.2745 19.9757V24.9429H3.39396V6.89905H18.6252ZM3.39396 27.976H21.2738V46.0213H3.39396V27.976ZM24.3136 46.0205V27.976H36.9153V27.8834C38.6863 28.6813 40.737 28.8459 42.5916 28.2915V46.0205H24.3136Z" fill="#FFD17E"/>
</svg>
