<svg width="31" height="31" viewBox="0 0 31 31" fill="none" xmlns="http://www.w3.org/2000/svg">
<path d="M29.3587 4.91185C29.0437 4.17021 28.7625 3.22386 29.0673 1.82219C29.1425 1.47719 29.0616 1.13539 28.839 0.859262C28.392 0.305099 27.4329 0.208169 26.9017 0.693459C26.4476 1.10796 26.1664 1.72335 26.0656 2.52111C26.0057 2.99811 25.9764 3.39731 25.9509 3.73912C25.8692 4.8602 25.8546 5.06235 25.0287 5.5521C21.6515 7.55831 20.1101 9.4644 19.3417 12.584C19.0394 13.811 18.2825 14.3549 17.0772 14.881C15.4951 15.5717 13.1962 17.2157 11.9246 19.5771C11.028 21.2421 10.4974 21.3741 9.89673 21.3741C9.56448 21.3741 9.16847 21.3161 8.70996 21.2491C8.43639 21.2089 8.16218 21.1892 7.89371 21.1892C3.99162 21.1892 1.90442 25.3393 1.18892 27.1236C1.04671 27.4769 1.06521 27.8736 1.23866 28.2122C1.41275 28.5514 1.72523 28.7976 2.09637 28.8888C2.56444 29.0036 3.1811 29.2382 3.55606 29.4079C4.60189 29.8798 5.66494 30.1195 6.71651 30.1195C9.57979 30.1195 11.8003 28.4073 13.4143 26.9157C14.9556 25.4911 15.2745 25.3495 16.1245 24.972C16.2744 24.9057 16.4383 24.8324 16.6245 24.7463C16.8139 24.6583 17.0619 24.5786 17.3489 24.4861C18.7882 24.0218 21.1974 23.2451 22.8006 19.1587C23.2036 18.1327 24.4089 17.604 25.4726 17.1372C26.0242 16.8955 26.5445 16.6672 26.9431 16.3771C29.5111 14.5073 31.6851 10.384 29.3587 4.91185ZM26.1932 15.3446C25.9062 15.5532 25.4471 15.7547 24.9611 15.9683C23.7355 16.5059 22.2101 17.1755 21.6145 18.6919C20.2313 22.2159 18.3393 22.8255 16.958 23.2713C16.6442 23.3727 16.3483 23.4677 16.0882 23.5888C15.909 23.6717 15.7508 23.7419 15.6067 23.8063C14.6725 24.2214 14.2458 24.4115 12.5489 25.9789C11.1052 27.313 9.13786 28.8441 6.71651 28.8441C5.84733 28.8441 4.96092 28.6426 4.08153 28.246C3.75248 28.0974 3.02805 27.8047 2.37249 27.6C2.9917 26.0567 4.77025 22.4659 7.89371 22.4659C8.10032 22.4659 8.31331 22.4818 8.52567 22.513C9.01223 22.5838 9.47202 22.6508 9.89673 22.6508C11.2251 22.6508 12.0789 21.9818 13.0476 20.1829C14.1649 18.1084 16.1915 16.6609 17.5874 16.0512C18.8762 15.4894 20.1306 14.7178 20.5801 12.8908C21.2637 10.1136 22.5985 8.48043 25.6798 6.65023C27.0777 5.81994 27.1357 5.02983 27.2224 3.8335C27.246 3.51019 27.2734 3.13203 27.3302 2.68181C27.3908 2.19971 27.54 1.83813 27.7696 1.63981C27.7804 1.63981 27.7906 1.64108 27.8002 1.64363C27.4488 3.3565 27.8187 4.55602 28.1828 5.41245C30.8069 11.5784 26.9858 14.7675 26.1932 15.3446Z" fill="#FFD17E"/>
<path d="M2.71175 15.0717C2.79465 15.08 2.87691 15.0845 2.95854 15.0845C4.13446 15.0845 5.10568 14.2472 5.21791 13.1376C5.27722 12.5502 5.08846 11.9757 4.68671 11.5197C4.29707 11.0778 3.7512 10.8017 3.14921 10.7404C1.87317 10.6116 0.762934 11.4878 0.642408 12.6746C0.583102 13.2619 0.771862 13.8365 1.17361 14.2924C1.56389 14.7344 2.10976 15.0105 2.71175 15.0717ZM2.90306 12.0031C2.9426 12.0031 2.98213 12.005 3.02167 12.0095C3.3029 12.0375 3.55479 12.1638 3.73079 12.3634C3.89468 12.5496 3.97248 12.7785 3.94889 13.0087C3.89915 13.4991 3.40812 13.8626 2.83993 13.802C2.5587 13.774 2.30681 13.6484 2.1308 13.4481C1.96691 13.2619 1.88911 13.033 1.91271 12.8021C1.95862 12.3468 2.38461 12.0031 2.90306 12.0031Z" fill="#FFD17E"/>
<path d="M12.7103 8.43324C12.7708 8.43898 12.8314 8.44217 12.8914 8.44217C13.9372 8.44217 14.816 7.55257 14.9358 6.37346C15.0621 5.12676 14.2694 4.02162 13.1681 3.91002C12.0451 3.80416 11.0688 4.72309 10.9426 5.9698C10.8839 6.5533 11.0223 7.12595 11.3316 7.58254C11.6612 8.06783 12.1638 8.37776 12.7103 8.43324ZM13.0355 5.17841C13.0368 5.17841 13.038 5.17841 13.0393 5.17841C13.4341 5.21859 13.721 5.70643 13.6662 6.24465C13.6145 6.7529 13.267 7.16613 12.8914 7.16613L12.8384 7.16357C12.6057 7.13998 12.4558 6.96716 12.3869 6.86641C12.2467 6.65979 12.1829 6.3792 12.2116 6.09734C12.2632 5.591 12.6089 5.17841 13.0355 5.17841Z" fill="#FFD17E"/>
<path d="M8.4721 18.3233C8.54799 18.331 8.62324 18.3348 8.69785 18.3348C9.81319 18.3348 10.7366 17.5179 10.8463 16.4351C10.9037 15.8676 10.7296 15.3128 10.3565 14.8715C9.98919 14.4372 9.47138 14.1668 8.89809 14.1081C7.689 13.9876 6.64062 14.8415 6.52393 15.997C6.46653 16.5646 6.64063 17.1194 7.01368 17.5607C7.38163 17.9943 7.89945 18.2653 8.4721 18.3233ZM8.67298 15.3721C8.7055 15.3721 8.73802 15.3733 8.77055 15.3772C9.01287 15.4014 9.23097 15.5143 9.38338 15.6954C9.53069 15.8695 9.59956 16.0863 9.57724 16.3063C9.53069 16.7661 9.10343 17.1085 8.60028 17.0543C8.35795 17.0301 8.13986 16.9172 7.98745 16.7361C7.84014 16.562 7.77127 16.3452 7.79359 16.1252C7.83695 15.696 8.21511 15.3721 8.67298 15.3721Z" fill="#FFD17E"/>
</svg>
