<svg width="18" height="30" viewBox="0 0 18 30" fill="none" xmlns="http://www.w3.org/2000/svg">
<path d="M3.42348 14.3195C3.1112 14.3195 2.8273 14.575 2.8273 14.9157V18.1237C2.8273 18.436 3.08281 18.7199 3.42348 18.7199C3.73577 18.7199 4.01967 18.4644 4.01967 18.1237V14.9157C3.99128 14.575 3.73577 14.3195 3.42348 14.3195Z" fill="#FFD17E"/>
<path d="M8.6756 17.6127L5.8934 19.2025C5.6095 19.3729 5.52433 19.7136 5.66628 19.9975C5.77984 20.1962 5.97857 20.2814 6.1773 20.2814C6.26247 20.2814 6.37603 20.253 6.4612 20.1962L9.2434 18.6064C9.5273 18.436 9.61247 18.0953 9.47052 17.8114C9.30018 17.5559 8.9595 17.4424 8.6756 17.6127Z" fill="#FFD17E"/>
<path d="M5.69467 13.0136C5.52433 13.2975 5.63789 13.6381 5.92179 13.8085L8.70399 15.3983C8.78916 15.4551 8.90272 15.4835 8.98789 15.4835C9.18662 15.4835 9.38535 15.3699 9.49891 15.1996C9.66925 14.9157 9.55569 14.575 9.27179 14.4047L6.48959 12.8148C6.20569 12.6445 5.83662 12.7297 5.69467 13.0136Z" fill="#FFD17E"/>
<path d="M17.0506 4.01399L11.8269 0.89111C11.6565 0.77755 11.4294 0.77755 11.2307 0.89111L6.12052 3.73009L1.20908 0.89111C0.925179 0.720771 0.556111 0.80594 0.414162 1.08984C0.243823 1.37374 0.328993 1.7428 0.612891 1.88475L5.6095 4.78052V6.56907L1.06713 3.92882C0.78323 3.75848 0.442552 3.87204 0.272213 4.15594C0.101874 4.43984 0.187044 4.78052 0.470942 4.95085L5.6095 7.9034V10.061L0.612891 12.9568C0.442552 13.0703 0.328993 13.2407 0.328993 13.4678V19.5716C0.328993 19.7703 0.442552 19.9691 0.612891 20.0826L5.6095 22.95V28.5996C5.6095 28.9119 5.86501 29.1958 6.20569 29.1958C6.51798 29.1958 6.80187 28.9403 6.80187 28.5996V22.95L11.7985 20.0542C11.9688 19.9407 12.0824 19.7703 12.0824 19.5432V13.4678C12.0824 13.2691 11.9688 13.0703 11.7985 12.9568L6.77348 10.0894V4.69535L11.5146 2.05509L16.4544 5.00763C16.5396 5.06441 16.6531 5.0928 16.7667 5.0928C16.9654 5.0928 17.1642 4.97924 17.2777 4.80891C17.4197 4.5534 17.3345 4.18433 17.0506 4.01399ZM10.89 19.2309L6.20569 21.928H6.14891L1.49298 19.2309V13.8085L6.14891 11.1398C6.1773 11.1398 6.1773 11.1398 6.20569 11.1398C6.23408 11.1398 6.23408 11.1398 6.26247 11.1398L10.9184 13.8085V19.2309H10.89Z" fill="#FFD17E"/>
</svg>
