<svg width="15" height="29" viewBox="0 0 15 29" fill="none" xmlns="http://www.w3.org/2000/svg">
<path d="M13.7251 9.05331L11.2851 6.61331C10.9099 6.23859 10.6989 5.73023 10.6984 5.19997V4.18664C11.1393 4.02665 11.51 3.71679 11.7456 3.31122C11.9812 2.90565 12.0668 2.43017 11.9874 1.9679C11.9079 1.50563 11.6686 1.08599 11.3111 0.782317C10.9536 0.478649 10.5008 0.31028 10.0318 0.306641H4.69842C4.2294 0.31028 3.77657 0.478649 3.4191 0.782317C3.06162 1.08599 2.82225 1.50563 2.74283 1.9679C2.6634 2.43017 2.74897 2.90565 2.98458 3.31122C3.22019 3.71679 3.59084 4.02665 4.03176 4.18664V5.19997C4.03129 5.73023 3.82027 6.23859 3.44509 6.61331L1.00509 9.05331C0.695153 9.363 0.449578 9.73097 0.282525 10.136C0.115473 10.5411 0.0302459 10.9752 0.0317581 11.4133V24.9733C0.0317581 25.8574 0.382948 26.7052 1.00807 27.3303C1.63319 27.9555 2.48104 28.3066 3.36509 28.3066H11.3651C12.2491 28.3066 13.097 27.9555 13.7221 27.3303C14.3472 26.7052 14.6984 25.8574 14.6984 24.9733V11.4133C14.6999 10.9752 14.6147 10.5411 14.4477 10.136C14.2806 9.73097 14.035 9.363 13.7251 9.05331ZM4.69842 1.63997H10.0318C10.2086 1.63997 10.3781 1.71021 10.5032 1.83524C10.6282 1.96026 10.6984 2.12983 10.6984 2.30664C10.6984 2.48345 10.6282 2.65302 10.5032 2.77805C10.3781 2.90307 10.2086 2.97331 10.0318 2.97331H4.69842C4.52161 2.97331 4.35204 2.90307 4.22702 2.77805C4.102 2.65302 4.03176 2.48345 4.03176 2.30664C4.03176 2.12983 4.102 1.96026 4.22702 1.83524C4.35204 1.71021 4.52161 1.63997 4.69842 1.63997ZM1.95176 9.99998L4.39176 7.55997C4.7017 7.25029 4.94727 6.88231 5.11432 6.47727C5.28138 6.07222 5.3666 5.63811 5.36509 5.19997V4.30664H9.36509V5.19997C9.36358 5.63811 9.44881 6.07222 9.61586 6.47727C9.78291 6.88231 10.0285 7.25029 10.3384 7.55997L12.7784 9.99998C13.1536 10.3747 13.3646 10.8831 13.3651 11.4133V11.8933C11.5307 11.3855 9.57768 11.5219 7.83176 12.28C5.80509 12.9066 3.71176 13.5333 1.36509 12.5333V11.4133C1.36556 10.8831 1.57658 10.3747 1.95176 9.99998ZM11.3651 26.9733H3.36509C2.83466 26.9733 2.32595 26.7626 1.95088 26.3875C1.5758 26.0124 1.36509 25.5037 1.36509 24.9733V13.9733C2.18146 14.2688 3.04358 14.4177 3.91176 14.4133C5.38254 14.3511 6.83504 14.0633 8.21843 13.56C10.1251 12.9733 11.7651 12.48 13.3651 13.36V24.9733C13.3651 25.5037 13.1544 26.0124 12.7793 26.3875C12.4042 26.7626 11.8955 26.9733 11.3651 26.9733Z" fill="#FFD17E"/>
</svg>
