<svg width="24" height="29" viewBox="0 0 24 29" fill="none" xmlns="http://www.w3.org/2000/svg">
<path d="M11.9552 27.7917C13.7634 27.7917 15.7764 26.6379 17.0747 24.8533C18.3484 23.1082 18.7559 21.0165 18.1907 19.1157C17.3716 16.3952 12.4569 11.0352 12.2521 10.8153C12.2138 10.7741 12.1677 10.7414 12.1164 10.719C12.0652 10.6966 12.01 10.685 11.9542 10.685C11.8984 10.685 11.8432 10.6966 11.7919 10.719C11.7407 10.7414 11.6945 10.7741 11.6562 10.8153C11.4514 11.0415 6.52444 16.3994 5.71761 19.1157C5.14627 21.0165 5.55583 23.1082 6.83161 24.8533C8.13606 26.6379 10.147 27.7917 11.9552 27.7917ZM6.49782 19.3543C7.14492 17.1817 10.8699 12.9215 11.9572 11.7034C13.0446 12.9174 16.7696 17.1817 17.4167 19.3543C18.0884 21.61 17.0849 23.4568 16.4276 24.3574C15.2706 25.9407 13.5156 26.9617 11.9552 26.9617C10.3948 26.9617 8.64186 25.9386 7.48486 24.3574C6.82956 23.4589 5.82614 21.61 6.49782 19.3543Z" fill="#FFD17E"/>
<path d="M22.6631 11.7366C23.6133 10.4355 23.9164 8.87505 23.4925 7.45568C22.8945 5.44698 19.2884 1.52296 19.1368 1.35488C19.0985 1.31374 19.0524 1.28097 19.0011 1.25857C18.9499 1.23616 18.8947 1.22461 18.8389 1.22461C18.7831 1.22461 18.7279 1.23616 18.6766 1.25857C18.6254 1.28097 18.5792 1.31374 18.5409 1.35488C18.3873 1.52089 14.7832 5.44491 14.1853 7.45361C13.7634 8.87505 14.0644 10.4355 15.0146 11.7345C15.9648 13.0336 17.4863 13.9238 18.8379 13.9238C20.1894 13.9238 21.6925 13.0585 22.6631 11.7366ZM15.6699 11.2427C15.203 10.6036 14.4904 9.29215 14.9655 7.69432C15.416 6.18157 17.9594 3.23907 18.8379 2.2534C19.7164 3.23907 22.2597 6.18157 22.7102 7.69432C23.1853 9.29215 22.4727 10.5995 22.0058 11.2427C21.1867 12.3674 19.9396 13.0958 18.8379 13.0958C17.7361 13.0958 16.4911 12.3674 15.6699 11.2427Z" fill="#FFD17E"/>
<path d="M5.08075 1.35488C4.92921 1.52296 1.32304 5.44698 0.72508 7.45568C0.303234 8.87713 0.60426 10.4376 1.55444 11.7366C2.50462 13.0356 4.02613 13.9238 5.37973 13.9238C6.73332 13.9238 8.23231 13.0585 9.20297 11.7366C10.1736 10.4148 10.4542 8.87505 10.0323 7.45568C9.43437 5.44698 5.83024 1.52296 5.67666 1.35488C5.63837 1.31374 5.59219 1.28097 5.54095 1.25857C5.48972 1.23616 5.4345 1.22461 5.3787 1.22461C5.3229 1.22461 5.26769 1.23616 5.21645 1.25857C5.16521 1.28097 5.11903 1.31374 5.08075 1.35488ZM8.54767 11.2427C7.72855 12.3674 6.48144 13.0958 5.37973 13.0958C4.27801 13.0958 3.03295 12.3695 2.21178 11.2427C1.74488 10.6036 1.03225 9.29215 1.50734 7.69432C1.95785 6.18157 4.50122 3.23907 5.37973 2.2534C6.25618 3.237 8.8016 6.18157 9.24187 7.69432C9.7272 9.29215 9.01457 10.6036 8.54767 11.2427Z" fill="#FFD17E"/>
<path d="M11.9552 27.7917C13.7634 27.7917 15.7764 26.6379 17.0747 24.8533C18.3484 23.1082 18.7559 21.0165 18.1907 19.1157C17.3716 16.3952 12.4569 11.0352 12.2521 10.8153C12.2138 10.7741 12.1677 10.7414 12.1164 10.719C12.0652 10.6966 12.01 10.685 11.9542 10.685C11.8984 10.685 11.8432 10.6966 11.7919 10.719C11.7407 10.7414 11.6945 10.7741 11.6562 10.8153C11.4514 11.0415 6.52444 16.3994 5.71761 19.1157C5.14627 21.0165 5.55583 23.1082 6.83161 24.8533C8.13606 26.6379 10.147 27.7917 11.9552 27.7917ZM6.49782 19.3543C7.14492 17.1817 10.8699 12.9215 11.9572 11.7034C13.0446 12.9174 16.7696 17.1817 17.4167 19.3543C18.0884 21.61 17.0849 23.4568 16.4276 24.3574C15.2706 25.9407 13.5156 26.9617 11.9552 26.9617C10.3948 26.9617 8.64186 25.9386 7.48486 24.3574C6.82956 23.4589 5.82614 21.61 6.49782 19.3543Z" stroke="#FFD17E" stroke-width="0.5"/>
<path d="M22.6631 11.7366C23.6133 10.4355 23.9164 8.87505 23.4925 7.45568C22.8945 5.44698 19.2884 1.52296 19.1368 1.35488C19.0985 1.31374 19.0524 1.28097 19.0011 1.25857C18.9499 1.23616 18.8947 1.22461 18.8389 1.22461C18.7831 1.22461 18.7279 1.23616 18.6766 1.25857C18.6254 1.28097 18.5792 1.31374 18.5409 1.35488C18.3873 1.52089 14.7832 5.44491 14.1853 7.45361C13.7634 8.87505 14.0644 10.4355 15.0146 11.7345C15.9648 13.0336 17.4863 13.9238 18.8379 13.9238C20.1894 13.9238 21.6925 13.0585 22.6631 11.7366ZM15.6699 11.2427C15.203 10.6036 14.4904 9.29215 14.9655 7.69432C15.416 6.18157 17.9594 3.23907 18.8379 2.2534C19.7164 3.23907 22.2597 6.18157 22.7102 7.69432C23.1853 9.29215 22.4727 10.5995 22.0058 11.2427C21.1867 12.3674 19.9396 13.0958 18.8379 13.0958C17.7361 13.0958 16.4911 12.3674 15.6699 11.2427Z" stroke="#FFD17E" stroke-width="0.5"/>
<path d="M5.08075 1.35488C4.92921 1.52296 1.32304 5.44698 0.72508 7.45568C0.303234 8.87713 0.60426 10.4376 1.55444 11.7366C2.50462 13.0356 4.02613 13.9238 5.37973 13.9238C6.73332 13.9238 8.23231 13.0585 9.20297 11.7366C10.1736 10.4148 10.4542 8.87505 10.0323 7.45568C9.43437 5.44698 5.83024 1.52296 5.67666 1.35488C5.63837 1.31374 5.59219 1.28097 5.54095 1.25857C5.48972 1.23616 5.4345 1.22461 5.3787 1.22461C5.3229 1.22461 5.26769 1.23616 5.21645 1.25857C5.16521 1.28097 5.11903 1.31374 5.08075 1.35488ZM8.54767 11.2427C7.72855 12.3674 6.48144 13.0958 5.37973 13.0958C4.27801 13.0958 3.03295 12.3695 2.21178 11.2427C1.74488 10.6036 1.03225 9.29215 1.50734 7.69432C1.95785 6.18157 4.50122 3.23907 5.37973 2.2534C6.25618 3.237 8.8016 6.18157 9.24187 7.69432C9.7272 9.29215 9.01457 10.6036 8.54767 11.2427Z" stroke="#FFD17E" stroke-width="0.5"/>
</svg>
