<svg width="32" height="32" viewBox="0 0 32 32" fill="none" xmlns="http://www.w3.org/2000/svg">
<path d="M1 26.048V25.298C0.585786 25.298 0.25 25.6338 0.25 26.048H1ZM1.70622 26.048H2.45622C2.45622 25.6338 2.12044 25.298 1.70622 25.298V26.048ZM1.70622 26.6999V27.4499C2.12044 27.4499 2.45622 27.1141 2.45622 26.6999H1.70622ZM1 26.6999H0.25C0.25 27.1141 0.585786 27.4499 1 27.4499L1 26.6999ZM11.9362 30.053V29.303C11.522 29.303 11.1862 29.6388 11.1862 30.053H11.9362ZM12.6424 30.053H13.3924C13.3924 29.6388 13.0566 29.303 12.6424 29.303V30.053ZM12.6424 30.705V31.455C13.0566 31.455 13.3924 31.1192 13.3924 30.705H12.6424ZM11.9362 30.705H11.1862C11.1862 31.1192 11.522 31.455 11.9362 31.455V30.705ZM14.7078 27.8522V27.1022C14.2936 27.1022 13.9578 27.438 13.9578 27.8522H14.7078ZM15.414 27.8522H16.164C16.164 27.438 15.8282 27.1022 15.414 27.1022V27.8522ZM15.414 28.5041V29.2541C15.8282 29.2541 16.164 28.9183 16.164 28.5041H15.414ZM14.7078 28.5041H13.9578C13.9578 28.9183 14.2936 29.2541 14.7078 29.2541V28.5041ZM20.7533 29.0338V28.2838C20.339 28.2838 20.0033 28.6196 20.0033 29.0338H20.7533ZM21.4595 29.0338H22.2095C22.2095 28.6196 21.8737 28.2838 21.4595 28.2838V29.0338ZM21.4595 29.6857V30.4357C21.8737 30.4357 22.2095 30.0999 22.2095 29.6857H21.4595ZM20.7533 29.6857H20.0033C20.0033 30.0999 20.339 30.4357 20.7533 30.4357V29.6857ZM25.9834 26.048V25.298C25.5692 25.298 25.2334 25.6338 25.2334 26.048H25.9834ZM26.6897 26.048H27.4397C27.4397 25.6338 27.1039 25.298 26.6897 25.298V26.048ZM26.6897 26.6999V27.4499C27.1039 27.4499 27.4397 27.1141 27.4397 26.6999H26.6897ZM25.9834 26.6999H25.2334C25.2334 27.1141 25.5692 27.4499 25.9834 27.4499V26.6999ZM24.2174 7.80009V7.05009C23.8032 7.05009 23.4674 7.38588 23.4674 7.80009H24.2174ZM24.9236 7.80009H25.6736C25.6736 7.38588 25.3378 7.05009 24.9236 7.05009V7.80009ZM24.9236 8.45203V9.20203C25.3378 9.20203 25.6736 8.86624 25.6736 8.45203H24.9236ZM24.2174 8.45203H23.4674C23.4674 8.86624 23.8032 9.20203 24.2174 9.20203V8.45203ZM22.087 6.49573V5.74573C21.6728 5.74573 21.337 6.08151 21.337 6.49573H22.087ZM22.7932 6.49573H23.5432C23.5432 6.08151 23.2074 5.74573 22.7932 5.74573V6.49573ZM22.7932 7.14767V7.89767C23.2074 7.89767 23.5432 7.56188 23.5432 7.14767H22.7932ZM22.087 7.14767H21.337C21.337 7.56188 21.6728 7.89767 22.087 7.89767V7.14767ZM6.76033 21.1274V20.3774C6.34611 20.3774 6.01033 20.7132 6.01033 21.1274H6.76033ZM7.46655 21.1274H8.21655C8.21655 20.7132 7.88077 20.3774 7.46655 20.3774V21.1274ZM7.46655 21.7793V22.5293C7.88077 22.5293 8.21655 22.1935 8.21655 21.7793H7.46655ZM6.76033 21.7793H6.01033C6.01033 22.1935 6.34611 22.5293 6.76033 22.5293V21.7793ZM5.2931 23.5728V22.8228C4.87889 22.8228 4.5431 23.1586 4.5431 23.5728H5.2931ZM5.99933 23.5728H6.74933C6.74933 23.1586 6.41354 22.8228 5.99933 22.8228V23.5728ZM5.99933 24.2247V24.9747C6.41354 24.9747 6.74933 24.6389 6.74933 24.2247H5.99933ZM5.2931 24.2247H4.5431C4.5431 24.6389 4.87889 24.9747 5.2931 24.9747V24.2247ZM9.25564 18.6775C9.23669 19.0913 9.55676 19.4421 9.97054 19.4611C10.3843 19.48 10.7351 19.1599 10.7541 18.7462L9.25564 18.6775ZM9.87769 13.0048L9.1417 13.1491L9.14174 13.1493L9.87769 13.0048ZM11.8986 9.51186L11.9691 8.76518L11.969 8.76517L11.8986 9.51186ZM19.9957 10.8326C20.4099 10.8326 20.7457 10.4968 20.7457 10.0826C20.7457 9.66839 20.4099 9.33261 19.9957 9.33261V10.8326ZM19.3501 9.33261C18.9359 9.33261 18.6001 9.66839 18.6001 10.0826C18.6001 10.4968 18.9359 10.8326 19.3501 10.8326V9.33261ZM16.7141 23.0041C16.3998 23.2739 16.3637 23.7474 16.6335 24.0617C16.9032 24.376 17.3767 24.4121 17.691 24.1424L16.7141 23.0041ZM28.434 18.6C28.0624 18.417 27.6128 18.5699 27.4298 18.9414C27.2468 19.313 27.3996 19.7626 27.7712 19.9456L28.434 18.6ZM27.2635 9.07856C27.1879 9.48582 27.4567 9.87726 27.8639 9.95287C28.2712 10.0285 28.6626 9.75964 28.7383 9.35239L27.2635 9.07856ZM27.3895 7.23668L26.8592 7.76701L26.8593 7.76716L27.3895 7.23668ZM10.4315 9.35245C10.5071 9.75969 10.8986 10.0285 11.3058 9.95286C11.7131 9.87722 11.9819 9.48575 11.9062 9.07851L10.4315 9.35245ZM9.91535 17.9618C7.87119 17.9618 5.88547 18.6235 4.39597 19.6986C2.91402 20.7682 1.83949 22.3171 1.83949 24.1024H3.33949C3.33949 22.9533 4.03786 21.8069 5.27383 20.9149C6.50224 20.0282 8.17945 19.4618 9.91535 19.4618V17.9618ZM1.83949 24.1024C1.83949 24.9764 2.3608 25.5888 2.98502 25.9838C3.59334 26.3686 4.38252 26.6087 5.17738 26.7672C6.77855 27.0865 8.67529 27.1242 9.91535 27.1242V25.6242C8.67971 25.6242 6.91352 25.5839 5.47069 25.2962C4.74355 25.1512 4.16546 24.9556 3.78701 24.7162C3.42446 24.4868 3.33949 24.2864 3.33949 24.1024H1.83949ZM9.91535 27.1242C11.1556 27.1242 13.0524 27.0866 14.6535 26.7674C15.4483 26.609 16.2375 26.3689 16.8458 25.984C17.4701 25.5889 17.9912 24.9764 17.9912 24.1024H16.4912C16.4912 24.2866 16.4062 24.4871 16.0437 24.7164C15.6653 24.9558 15.0873 25.1514 14.3602 25.2964C12.9175 25.584 11.1513 25.6242 9.91535 25.6242V27.1242ZM17.9912 24.1024C17.9912 22.3171 16.9167 20.7682 15.4347 19.6986C13.9452 18.6235 11.9595 17.9618 9.91535 17.9618V19.4618C11.6513 19.4618 13.3285 20.0282 14.5569 20.9149C15.7928 21.8069 16.4912 22.9533 16.4912 24.1024H17.9912ZM1 26.798H1.70622V25.298H1V26.798ZM0.956225 26.048V26.6999H2.45622V26.048H0.956225ZM1.70622 25.9499H1V27.4499H1.70622V25.9499ZM1.75 26.6999V26.048H0.25V26.6999H1.75ZM11.9362 30.803H12.6424V29.303H11.9362V30.803ZM11.8924 30.053V30.705H13.3924V30.053H11.8924ZM12.6424 29.955H11.9362V31.455H12.6424V29.955ZM12.6862 30.705V30.053H11.1862V30.705H12.6862ZM14.7078 28.6022H15.414V27.1022H14.7078V28.6022ZM14.664 27.8522V28.5041H16.164V27.8522H14.664ZM15.414 27.7541H14.7078V29.2541H15.414V27.7541ZM15.4578 28.5041V27.8522H13.9578V28.5041H15.4578ZM20.7533 29.7838H21.4595V28.2838H20.7533V29.7838ZM20.7095 29.0338V29.6857H22.2095V29.0338H20.7095ZM21.4595 28.9357H20.7533V30.4357H21.4595V28.9357ZM21.5033 29.6857V29.0338H20.0033V29.6857H21.5033ZM25.9834 26.798H26.6897V25.298H25.9834V26.798ZM25.9397 26.048V26.6999H27.4397V26.048H25.9397ZM26.6897 25.9499H25.9834V27.4499H26.6897V25.9499ZM26.7334 26.6999V26.048H25.2334V26.6999H26.7334ZM24.2174 8.55009H24.9236V7.05009H24.2174V8.55009ZM24.1736 7.80009V8.45203H25.6736V7.80009H24.1736ZM24.9236 7.70203H24.2174V9.20203H24.9236V7.70203ZM24.9674 8.45203V7.80009H23.4674V8.45203H24.9674ZM22.087 7.24573H22.7932V5.74573H22.087V7.24573ZM22.0432 6.49573V7.14767H23.5432V6.49573H22.0432ZM22.7932 6.39767H22.087V7.89767H22.7932V6.39767ZM22.837 7.14767V6.49573H21.337V7.14767H22.837ZM6.76033 21.8774H7.46655V20.3774H6.76033V21.8774ZM6.71655 21.1274V21.7793H8.21655V21.1274H6.71655ZM7.46655 21.0293H6.76033V22.5293H7.46655V21.0293ZM7.51033 21.7793V21.1274H6.01033V21.7793H7.51033ZM5.2931 24.3228H5.99933V22.8228H5.2931V24.3228ZM5.24933 23.5728V24.2247H6.74933V23.5728H5.24933ZM5.99933 23.4747H5.2931V24.9747H5.99933V23.4747ZM6.0431 24.2247V23.5728H4.5431V24.2247H6.0431ZM10.7541 18.7462C10.7906 17.9493 10.8276 16.8557 10.8207 15.782C10.814 14.7235 10.7648 13.6303 10.6136 12.8603L9.14174 13.1493C9.26347 13.7693 9.31407 14.7393 9.32077 15.7916C9.32738 16.8288 9.29153 17.8937 9.25564 18.6775L10.7541 18.7462ZM10.6137 12.8605C10.5168 12.3664 10.3538 11.7634 10.273 11.3971C10.1748 10.9515 10.1512 10.6808 10.1823 10.5143C10.1948 10.4478 10.2122 10.4224 10.2208 10.4117C10.2292 10.4014 10.2587 10.3683 10.3513 10.3311C10.5638 10.2455 10.9999 10.1804 11.8281 10.2585L11.969 8.76517C11.0718 8.68049 10.3429 8.71737 9.79092 8.93964C9.5012 9.05632 9.24861 9.22869 9.05498 9.46788C8.86165 9.7067 8.75718 9.97494 8.70787 10.2388C8.61549 10.733 8.70898 11.2701 8.80822 11.7201C8.92499 12.2497 9.04002 12.6304 9.1417 13.1491L10.6137 12.8605ZM11.828 10.2585C15.1853 10.5759 14.2472 10.8326 19.9957 10.8326V9.33261C14.3321 9.33261 15.5137 9.10025 11.9691 8.76518L11.828 10.2585ZM19.9957 9.33261H19.3501V10.8326H19.9957V9.33261ZM19.3501 10.8326C25.0986 10.8326 24.1605 10.5759 27.5178 10.2585L27.3766 8.76518C23.8321 9.10025 25.0137 9.33261 19.3501 9.33261V10.8326ZM27.5178 10.2585C28.346 10.1802 28.782 10.2453 28.9946 10.3309C29.0871 10.3681 29.1166 10.4011 29.1249 10.4115C29.1336 10.4222 29.151 10.4476 29.1634 10.5141C29.1946 10.6806 29.171 10.9514 29.0727 11.3971C28.992 11.7633 28.829 12.3664 28.7321 12.8605L30.2041 13.1491C30.3058 12.6304 30.4208 12.2496 30.5376 11.7201C30.6368 11.27 30.7303 10.7329 30.6379 10.2386C30.5886 9.97476 30.4841 9.70651 30.2908 9.46767C30.0972 9.22847 29.8446 9.05609 29.5548 8.93942C29.0029 8.71716 28.2739 8.68037 27.3766 8.76518L27.5178 10.2585ZM28.7321 12.8605C28.5154 13.966 28.5048 15.774 28.539 17.2373C28.5565 17.9835 28.5865 18.6648 28.6121 19.1593C28.6249 19.4068 28.6366 19.6079 28.6452 19.7475C28.6494 19.8173 28.6529 19.8717 28.6554 19.909C28.6566 19.9276 28.6575 19.9419 28.6582 19.9516C28.6585 19.9565 28.6588 19.9602 28.6589 19.9628C28.659 19.9641 28.6591 19.9651 28.6591 19.9658C28.6592 19.9661 28.6592 19.9664 28.6592 19.9666C28.6592 19.9667 28.6592 19.9668 28.6592 19.9669C28.6592 19.9669 28.6592 19.967 29.4074 19.9155C30.1557 19.8639 30.1557 19.8639 30.1557 19.8639C30.1557 19.8639 30.1557 19.8639 30.1557 19.8639C30.1557 19.8638 30.1556 19.8636 30.1556 19.8634C30.1556 19.8629 30.1555 19.8621 30.1555 19.861C30.1553 19.8589 30.1551 19.8556 30.1548 19.8512C30.1542 19.8423 30.1533 19.8289 30.1522 19.8113C30.1499 19.7759 30.1465 19.7235 30.1424 19.6558C30.1341 19.5203 30.1226 19.324 30.1101 19.0818C30.085 18.5971 30.0557 17.9305 30.0386 17.2023C30.0039 15.7168 30.0237 14.0694 30.2041 13.1491L28.7321 12.8605ZM29.4074 19.9155C28.7472 20.2713 28.7472 20.2712 28.7471 20.2711C28.7471 20.2711 28.7471 20.2711 28.7471 20.2711C28.7471 20.2711 28.7471 20.2711 28.7472 20.2712C28.7473 20.2715 28.7476 20.272 28.748 20.2727C28.7488 20.2741 28.7501 20.2766 28.7519 20.28C28.7555 20.2868 28.7612 20.2975 28.7687 20.3118C28.7836 20.3403 28.8059 20.383 28.8339 20.438C28.89 20.5481 28.9689 20.7067 29.0586 20.8975C29.2394 21.2822 29.4579 21.7848 29.6233 22.2805C29.7966 22.7999 29.8794 23.2197 29.8628 23.4741C29.8548 23.5951 29.8292 23.5914 29.8653 23.5474C29.9219 23.4784 29.9846 23.4809 29.9424 23.4829L30.0139 24.9812C30.3998 24.9628 30.7656 24.815 31.025 24.4988C31.2639 24.2076 31.3407 23.8596 31.3596 23.5721C31.3964 23.0095 31.2295 22.3553 31.0462 21.8057C30.8549 21.2325 30.6097 20.6713 30.4161 20.2594C30.3185 20.0519 30.2325 19.879 30.1705 19.7572C30.1394 19.6962 30.1143 19.6479 30.0967 19.6143C30.0878 19.5975 30.0809 19.5844 30.076 19.5752C30.0735 19.5706 30.0716 19.567 30.0702 19.5644C30.0695 19.5631 30.0689 19.562 30.0685 19.5612C30.0683 19.5608 30.0681 19.5605 30.068 19.5602C30.0679 19.5601 30.0678 19.5599 30.0678 19.5599C30.0677 19.5597 30.0677 19.5596 29.4074 19.9155ZM29.9424 23.4829C29.5736 23.5005 28.8017 23.4559 27.7749 23.3681C26.7673 23.282 25.5663 23.1593 24.371 23.0333C23.1791 22.9078 21.9904 22.7787 21.02 22.6814C20.0679 22.586 19.2715 22.5151 18.8923 22.5151V24.0151C19.1786 24.0151 19.8865 24.0753 20.8704 24.174C21.8359 24.2707 23.0145 24.3987 24.2138 24.5251C25.4096 24.6511 26.6235 24.7752 27.6471 24.8627C28.6515 24.9486 29.5269 25.0044 30.0139 24.9812L29.9424 23.4829ZM18.8923 22.5151C18.1708 22.5151 17.6732 22.5985 17.3324 22.701C17.1614 22.7524 17.0291 22.8089 16.928 22.8626C16.8774 22.8894 16.8349 22.9154 16.7995 22.9394C16.7817 22.9514 16.7658 22.9629 16.7516 22.9738C16.7445 22.9792 16.7379 22.9845 16.7316 22.9895C16.7285 22.9921 16.7255 22.9946 16.7225 22.997C16.7211 22.9982 16.7197 22.9994 16.7182 23.0006C16.7175 23.0012 16.7168 23.0018 16.7162 23.0024C16.7158 23.0027 16.7153 23.0031 16.7151 23.0033C16.7146 23.0037 16.7141 23.0041 17.2026 23.5733C17.691 24.1424 17.6905 24.1428 17.69 24.1432C17.6899 24.1434 17.6894 24.1438 17.689 24.1441C17.6884 24.1447 17.6877 24.1452 17.687 24.1458C17.6857 24.1469 17.6844 24.148 17.6831 24.1491C17.6806 24.1512 17.6781 24.1533 17.6757 24.1552C17.6709 24.1591 17.6664 24.1626 17.6622 24.1658C17.6539 24.1721 17.647 24.177 17.6417 24.1806C17.6311 24.1878 17.627 24.1897 17.6309 24.1876C17.6387 24.1835 17.6793 24.163 17.7644 24.1374C17.9358 24.0859 18.2831 24.0151 18.8923 24.0151V22.5151ZM29.7388 19.2426L28.434 18.6L27.7712 19.9456L29.0761 20.5883L29.7388 19.2426ZM28.0009 9.21548C28.7383 9.35239 28.7383 9.35209 28.7384 9.35179C28.7384 9.35168 28.7384 9.35137 28.7385 9.35115C28.7386 9.35072 28.7387 9.35027 28.7387 9.3498C28.7389 9.34887 28.7391 9.34785 28.7393 9.34677C28.7397 9.3446 28.7401 9.34213 28.7406 9.33938C28.7415 9.33387 28.7426 9.32719 28.7439 9.3194C28.7463 9.30383 28.7493 9.28374 28.7524 9.25953C28.7586 9.21118 28.7654 9.14587 28.7701 9.06674C28.7795 8.90946 28.7806 8.69197 28.7488 8.44115C28.6856 7.94226 28.4856 7.27178 27.9197 6.70619L26.8593 7.76716C27.119 8.02665 27.2247 8.34557 27.2607 8.6298C27.2786 8.77056 27.2778 8.89307 27.2728 8.97789C27.2703 9.01981 27.2668 9.05108 27.2645 9.06905C27.2634 9.078 27.2625 9.0835 27.2623 9.08523C27.2621 9.08609 27.2621 9.086 27.2623 9.0849C27.2624 9.08436 27.2626 9.08356 27.2627 9.0825C27.2628 9.08198 27.2629 9.08138 27.2631 9.08073C27.2631 9.0804 27.2632 9.08006 27.2633 9.07969C27.2633 9.07951 27.2633 9.07923 27.2634 9.07914C27.2634 9.07885 27.2635 9.07856 28.0009 9.21548ZM27.9198 6.70635C27.5495 6.33599 26.16 4.79856 24.6026 3.40343C23.8178 2.7005 22.961 2.00543 22.1271 1.48193C21.3194 0.974799 20.423 0.556641 19.5849 0.556641V2.05664C19.9795 2.05664 20.5718 2.27654 21.3295 2.7523C22.0612 3.21169 22.8466 3.84434 23.6017 4.52072C25.1239 5.88422 26.404 7.3118 26.8592 7.76701L27.9198 6.70635ZM19.5849 0.556641C18.7466 0.556641 17.8501 0.974819 17.0423 1.482C16.2084 2.00554 15.3515 2.70066 14.5668 3.40363C13.0094 4.79879 11.6199 6.33629 11.2499 6.70635L12.3105 7.76701C12.7655 7.31199 14.0455 5.88447 15.5676 4.52089C16.3227 3.84448 17.1081 3.21179 17.8399 2.75237C18.5977 2.27658 19.1901 2.05664 19.5849 2.05664V0.556641ZM11.2499 6.70635C10.6841 7.2721 10.4841 7.94244 10.4209 8.44132C10.3891 8.69211 10.3903 8.90956 10.3996 9.06682C10.4043 9.14594 10.4111 9.21124 10.4173 9.25958C10.4204 9.2838 10.4234 9.30388 10.4258 9.31945C10.4271 9.32725 10.4282 9.33392 10.4291 9.33943C10.4296 9.34219 10.43 9.34465 10.4304 9.34682C10.4306 9.34791 10.4308 9.34892 10.431 9.34986C10.4311 9.35033 10.4312 9.35078 10.4312 9.35121C10.4313 9.35142 10.4313 9.35173 10.4314 9.35184C10.4314 9.35215 10.4315 9.35245 11.1688 9.21548C11.9062 9.07851 11.9063 9.0788 11.9063 9.07908C11.9064 9.07917 11.9064 9.07946 11.9064 9.07964C11.9065 9.08 11.9066 9.08034 11.9066 9.08067C11.9068 9.08133 11.9069 9.08192 11.907 9.08245C11.9071 9.08351 11.9073 9.08431 11.9074 9.08485C11.9076 9.08595 11.9076 9.08605 11.9074 9.08519C11.9072 9.08347 11.9063 9.07797 11.9052 9.06904C11.9029 9.05109 11.8994 9.01984 11.897 8.97794C11.8919 8.89317 11.8911 8.77072 11.909 8.63C11.945 8.34587 12.0507 8.02681 12.3105 7.76701L11.2499 6.70635Z" fill="#FFD17E"/>
</svg>
